<?xml version="1.0" encoding="UTF-8" standalone="no"?>
<!-- Created with Inkscape (http://www.inkscape.org/) -->

<svg
   width="90.001999mm"
   height="69.363876mm"
   viewBox="0 0 90.001999 69.363876"
   version="1.1"
   id="svg1"
   xmlns:inkscape="http://www.inkscape.org/namespaces/inkscape"
   xmlns:sodipodi="http://sodipodi.sourceforge.net/DTD/sodipodi-0.dtd"
   xmlns:xlink="http://www.w3.org/1999/xlink"
   xmlns="http://www.w3.org/2000/svg"
   xmlns:svg="http://www.w3.org/2000/svg">
  <sodipodi:namedview
     id="namedview1"
     pagecolor="#ffffff"
     bordercolor="#000000"
     borderopacity="0.25"
     inkscape:showpageshadow="2"
     inkscape:pageopacity="0.0"
     inkscape:pagecheckerboard="0"
     inkscape:deskcolor="#d1d1d1"
     inkscape:document-units="mm" />
  <defs
     id="defs1">
    <radialGradient
       id="SVGID_00000163033795477746436060000016851787896144433572_"
       cx="115.868"
       cy="29.2922"
       r="96.545799"
       gradientTransform="matrix(0.9993,-0.03676498,0.03739823,1.0165,-7.5097,58.0139)"
       gradientUnits="userSpaceOnUse">
			<stop
   offset="0"
   style="stop-color:#E7ECE0"
   id="stop114" />

			<stop
   offset="0.5"
   style="stop-color:#6DBBCB"
   id="stop115" />

			<stop
   offset="1"
   style="stop-color:#0465AE"
   id="stop116" />

		</radialGradient>
    <radialGradient
       id="SVGID_00000052075488938877946230000014579378158293337765_"
       cx="115.868"
       cy="29.2922"
       r="96.545799"
       gradientTransform="matrix(0.9993,-0.03676498,0.03739823,1.0165,-7.5097,58.0139)"
       gradientUnits="userSpaceOnUse">
			<stop
   offset="0"
   style="stop-color:#E7ECE0"
   id="stop117" />

			<stop
   offset="0.5"
   style="stop-color:#6DBBCB"
   id="stop118" />

			<stop
   offset="1"
   style="stop-color:#0465AE"
   id="stop119" />

		</radialGradient>
    <radialGradient
       id="SVGID_00000157304484141393846770000008230109372293854397_"
       cx="115.868"
       cy="29.2922"
       r="96.545799"
       gradientTransform="matrix(0.9993,-0.03676498,0.03739823,1.0165,-7.5097,58.0139)"
       gradientUnits="userSpaceOnUse">
			<stop
   offset="0"
   style="stop-color:#E7ECE0"
   id="stop120" />

			<stop
   offset="0.5"
   style="stop-color:#6DBBCB"
   id="stop121" />

			<stop
   offset="1"
   style="stop-color:#0465AE"
   id="stop122" />

		</radialGradient>
    <radialGradient
       id="SVGID_00000013154448719829122450000012727226233144765094_"
       cx="115.868"
       cy="29.2922"
       r="96.545799"
       gradientTransform="matrix(0.9993,-0.03676498,0.03739823,1.0165,-7.5097,58.0139)"
       gradientUnits="userSpaceOnUse">
			<stop
   offset="0"
   style="stop-color:#E7ECE0"
   id="stop123" />

			<stop
   offset="0.5"
   style="stop-color:#6DBBCB"
   id="stop124" />

			<stop
   offset="1"
   style="stop-color:#0465AE"
   id="stop125" />

		</radialGradient>
    <radialGradient
       id="SVGID_00000015352108419408576090000014903051104895391408_"
       cx="115.868"
       cy="29.2922"
       r="96.545799"
       gradientTransform="matrix(0.9993,-0.03676498,0.03739823,1.0165,-7.5097,58.0139)"
       gradientUnits="userSpaceOnUse">
			<stop
   offset="0"
   style="stop-color:#E7ECE0"
   id="stop126" />

			<stop
   offset="0.5"
   style="stop-color:#6DBBCB"
   id="stop127" />

			<stop
   offset="1"
   style="stop-color:#0465AE"
   id="stop128" />

		</radialGradient>
    <radialGradient
       id="SVGID_00000116214909521782189750000006165057828803498405_"
       cx="115.868"
       cy="29.2922"
       r="96.545799"
       gradientTransform="matrix(0.9993,-0.03676498,0.03739823,1.0165,-7.5097,58.0139)"
       gradientUnits="userSpaceOnUse">
			<stop
   offset="0"
   style="stop-color:#E7ECE0"
   id="stop129" />

			<stop
   offset="0.5"
   style="stop-color:#6DBBCB"
   id="stop130" />

			<stop
   offset="1"
   style="stop-color:#0465AE"
   id="stop131" />

		</radialGradient>
    <radialGradient
       id="SVGID_00000137822796627696573950000005213815438751760561_"
       cx="115.868"
       cy="29.2922"
       r="96.545799"
       gradientTransform="matrix(0.9993,-0.03676498,0.03739823,1.0165,-7.5097,58.0139)"
       gradientUnits="userSpaceOnUse">
			<stop
   offset="0"
   style="stop-color:#E7ECE0"
   id="stop132" />

			<stop
   offset="0.5"
   style="stop-color:#6DBBCB"
   id="stop133" />

			<stop
   offset="1"
   style="stop-color:#0465AE"
   id="stop134" />

		</radialGradient>
    <radialGradient
       id="SVGID_00000078036703581544184270000003755644725882193573_"
       cx="115.868"
       cy="29.2922"
       r="96.545799"
       gradientTransform="matrix(0.9993,-0.03676498,0.03739823,1.0165,-7.5097,58.0139)"
       gradientUnits="userSpaceOnUse">
			<stop
   offset="0"
   style="stop-color:#E7ECE0"
   id="stop135" />

			<stop
   offset="0.5"
   style="stop-color:#6DBBCB"
   id="stop136" />

			<stop
   offset="1"
   style="stop-color:#0465AE"
   id="stop137" />

		</radialGradient>
    <radialGradient
       id="SVGID_00000163761563743931976530000014990107999132375198_"
       cx="115.868"
       cy="29.2922"
       r="96.545799"
       gradientTransform="matrix(0.9993,-0.03676498,0.03739823,1.0165,-7.5097,58.0139)"
       gradientUnits="userSpaceOnUse">
			<stop
   offset="0"
   style="stop-color:#E7ECE0"
   id="stop138" />

			<stop
   offset="0.5"
   style="stop-color:#6DBBCB"
   id="stop139" />

			<stop
   offset="1"
   style="stop-color:#0465AE"
   id="stop140" />

		</radialGradient>
    <radialGradient
       id="SVGID_00000050654273731395639810000010535150481326507652_"
       cx="115.868"
       cy="29.2922"
       r="96.545799"
       gradientTransform="matrix(0.9993,-0.03676498,0.03739823,1.0165,-7.5097,58.0139)"
       gradientUnits="userSpaceOnUse">
			<stop
   offset="0"
   style="stop-color:#E7ECE0"
   id="stop141" />

			<stop
   offset="0.5"
   style="stop-color:#6DBBCB"
   id="stop142" />

			<stop
   offset="1"
   style="stop-color:#0465AE"
   id="stop143" />

		</radialGradient>
    <radialGradient
       id="SVGID_00000139251562452020739180000004919806319296577214_"
       cx="115.868"
       cy="29.2922"
       r="96.545799"
       gradientTransform="matrix(0.9993,-0.03676498,0.03739823,1.0165,-7.5097,58.0139)"
       gradientUnits="userSpaceOnUse">
			<stop
   offset="0"
   style="stop-color:#E7ECE0"
   id="stop144" />

			<stop
   offset="0.5"
   style="stop-color:#6DBBCB"
   id="stop145" />

			<stop
   offset="1"
   style="stop-color:#0465AE"
   id="stop146" />

		</radialGradient>
    <radialGradient
       id="SVGID_00000152964932328930605760000004321366047271550137_"
       cx="115.868"
       cy="29.2922"
       r="96.545799"
       gradientTransform="matrix(0.9993,-0.03676498,0.03739823,1.0165,-7.5097,58.0139)"
       gradientUnits="userSpaceOnUse">
			<stop
   offset="0"
   style="stop-color:#E7ECE0"
   id="stop147" />

			<stop
   offset="0.5"
   style="stop-color:#6DBBCB"
   id="stop148" />

			<stop
   offset="1"
   style="stop-color:#0465AE"
   id="stop149" />

		</radialGradient>
    <radialGradient
       id="SVGID_00000180347348307520386090000000857450956597876909_"
       cx="115.868"
       cy="29.3172"
       r="96.5224"
       gradientTransform="matrix(0.9993,-0.03676498,0.03739823,1.0165,-7.5097,58.0139)"
       gradientUnits="userSpaceOnUse">
			<stop
   offset="0"
   style="stop-color:#E7ECE0"
   id="stop150" />

			<stop
   offset="0.5"
   style="stop-color:#6DBBCB"
   id="stop151" />

			<stop
   offset="1"
   style="stop-color:#0465AE"
   id="stop152" />

		</radialGradient>
    <radialGradient
       id="SVGID_00000040556827534389511220000009207811976129975964_"
       cx="115.868"
       cy="29.2922"
       r="96.545799"
       gradientTransform="matrix(0.9993,-0.03676498,0.03739823,1.0165,-7.5097,58.0139)"
       gradientUnits="userSpaceOnUse">
			<stop
   offset="0"
   style="stop-color:#E7ECE0"
   id="stop153" />

			<stop
   offset="0.5"
   style="stop-color:#6DBBCB"
   id="stop154" />

			<stop
   offset="1"
   style="stop-color:#0465AE"
   id="stop155" />

		</radialGradient>
    <clipPath
       id="SVGID_00000178904635504348307740000006986449229023198087_">
		<use
   xlink:href="#SVGID_00000023265768991548081530000015552737299409429138_"
   style="overflow:visible"
   id="use179" />

	</clipPath>
    <clipPath
       id="SVGID_00000181058222760105662680000015107762887643549338_">
			<use
   xlink:href="#SVGID_00000128451382710667715000000008481679449329134235_"
   style="overflow:visible"
   id="use180" />

		</clipPath>
    <clipPath
       id="SVGID_00000183224372990976221910000007792102216816131712_">
			<use
   xlink:href="#SVGID_00000107575647647673763680000012011739828110459014_"
   style="overflow:visible"
   id="use181" />

		</clipPath>
    <clipPath
       id="SVGID_00000096019444422187276730000000993985956177012920_">
			<use
   xlink:href="#SVGID_00000071532901156419673660000012803932387417820562_"
   style="overflow:visible"
   id="use193" />

		</clipPath>
    <clipPath
       id="SVGID_00000109732388561425737140000014635905897486866573_">
			<use
   xlink:href="#SVGID_00000098216723454853511260000015221436478678122163_"
   style="overflow:visible"
   id="use202" />

		</clipPath>
    <clipPath
       id="SVGID_00000057861322422351618420000002068869476118614185_">
					<use
   xlink:href="#SVGID_00000080179020680421021450000002559327646703518648_"
   style="overflow:visible"
   id="use203" />

				</clipPath>
    <clipPath
       id="SVGID_00000127737330615877903370000016562353242439777184_">
						<use
   xlink:href="#SVGID_00000042695932692575715830000000914935780301374875_"
   style="overflow:visible"
   id="use204" />

					</clipPath>
    <clipPath
       id="SVGID_00000012457666539902563250000005737560301729396909_">
			<use
   xlink:href="#SVGID_00000113317969965042885940000008190368178359955599_"
   style="overflow:visible"
   id="use277" />

		</clipPath>
    <rect
       id="SVGID_00000023265768991548081530000015552737299409429138_"
       x="462.89999"
       y="36.5"
       width="729.29999"
       height="69.199997" />
    <rect
       id="SVGID_00000128451382710667715000000008481679449329134235_"
       x="1126.8"
       y="39.299999"
       width="65.5"
       height="65.5" />
    <rect
       id="SVGID_00000107575647647673763680000012011739828110459014_"
       x="462.89999"
       y="50.400002"
       width="173.60001"
       height="43.599998" />
    <rect
       id="SVGID_00000071532901156419673660000012803932387417820562_"
       x="667.20001"
       y="38.400002"
       width="291"
       height="54.599998" />
    <rect
       id="SVGID_00000098216723454853511260000015221436478678122163_"
       x="791.70001"
       y="38.400002"
       width="40.900002"
       height="54.599998" />
    <rect
       id="SVGID_00000080179020680421021450000002559327646703518648_"
       x="791.79999"
       y="37.799999"
       width="40.799999"
       height="8.3999996" />
    <polygon
       id="SVGID_00000042695932692575715830000000914935780301374875_"
       points="804.2,42.7 791.8,42.7 791.8,45.5 832.6,45.5 832.6,42.7 820.1,42.7 820.1,40 815.2,40 815.2,38.4 809.2,38.4 809.2,40 804.2,40 " />
    <rect
       id="SVGID_00000113317969965042885940000008190368178359955599_"
       x="995"
       y="51.799999"
       width="100.6"
       height="30.799999" />
  </defs>
  <g
     inkscape:label="Layer 1"
     inkscape:groupmode="layer"
     id="layer1"
     transform="translate(228.99853,-81.956327)">
    <g
       id="g113"
       transform="matrix(0.26458333,0,0,0.26458333,-488.12448,94.434998)">
	
	
	
	
	
	
	
	
	
	
	
	
	
	
	
	
	
<g
   id="g12">
  <g
     id="g13">
    <g
       id="g179"
       transform="matrix(1.1981861,0,0,1.1981861,2041.3275,33.336702)">
	<g
   id="g155"
   transform="translate(-931.40122,-107.39427)">
		<path
   class="st2"
   d="m 133,117.1 v 0 c -0.1,-0.1 -0.1,-0.1 0,0 h -0.1 v 0 c -0.1,-0.1 0,-0.1 0.1,0 V 117 Z"
   id="path114"
   style="fill:none" />

		
			<radialGradient
   id="radialGradient3"
   cx="115.868"
   cy="29.2922"
   r="96.545799"
   gradientTransform="matrix(0.9993,-0.03676498,0.03739823,1.0165,-7.5097,58.0139)"
   gradientUnits="userSpaceOnUse">
			<stop
   offset="0"
   style="stop-color:#E7ECE0"
   id="stop1" />

			<stop
   offset="0.5"
   style="stop-color:#6DBBCB"
   id="stop2" />

			<stop
   offset="1"
   style="stop-color:#0465AE"
   id="stop3" />

		</radialGradient>

		<path
   style="fill:url(#SVGID_00000163033795477746436060000016851787896144433572_)"
   d="m 132.9,117 c 0,0 0,0 0,0 v 0 c 0,0 0,0 0,0 v 0 h 0.1 z"
   id="path116" />

		
			<radialGradient
   id="radialGradient6"
   cx="115.868"
   cy="29.2922"
   r="96.545799"
   gradientTransform="matrix(0.9993,-0.03676498,0.03739823,1.0165,-7.5097,58.0139)"
   gradientUnits="userSpaceOnUse">
			<stop
   offset="0"
   style="stop-color:#E7ECE0"
   id="stop4" />

			<stop
   offset="0.5"
   style="stop-color:#6DBBCB"
   id="stop5" />

			<stop
   offset="1"
   style="stop-color:#0465AE"
   id="stop6" />

		</radialGradient>

		<polygon
   style="fill:url(#SVGID_00000052075488938877946230000014579378158293337765_)"
   points="132.9,117 132.9,117.1 "
   id="polygon119" />

		
			<radialGradient
   id="radialGradient9"
   cx="115.868"
   cy="29.2922"
   r="96.545799"
   gradientTransform="matrix(0.9993,-0.03676498,0.03739823,1.0165,-7.5097,58.0139)"
   gradientUnits="userSpaceOnUse">
			<stop
   offset="0"
   style="stop-color:#E7ECE0"
   id="stop7" />

			<stop
   offset="0.5"
   style="stop-color:#6DBBCB"
   id="stop8" />

			<stop
   offset="1"
   style="stop-color:#0465AE"
   id="stop9" />

		</radialGradient>

		<path
   style="fill:url(#SVGID_00000157304484141393846770000008230109372293854397_)"
   d="m 132.9,117 v 0 c 0,0 -0.1,0 0,0 z"
   id="path122" />

		
			<radialGradient
   id="radialGradient12"
   cx="115.868"
   cy="29.2922"
   r="96.545799"
   gradientTransform="matrix(0.9993,-0.03676498,0.03739823,1.0165,-7.5097,58.0139)"
   gradientUnits="userSpaceOnUse">
			<stop
   offset="0"
   style="stop-color:#E7ECE0"
   id="stop10" />

			<stop
   offset="0.5"
   style="stop-color:#6DBBCB"
   id="stop11" />

			<stop
   offset="1"
   style="stop-color:#0465AE"
   id="stop12" />

		</radialGradient>

		<path
   style="fill:url(#SVGID_00000013154448719829122450000012727226233144765094_)"
   d="M 132.9,117 Z"
   id="path125" />

		
			<radialGradient
   id="radialGradient15"
   cx="115.868"
   cy="29.2922"
   r="96.545799"
   gradientTransform="matrix(0.9993,-0.03676498,0.03739823,1.0165,-7.5097,58.0139)"
   gradientUnits="userSpaceOnUse">
			<stop
   offset="0"
   style="stop-color:#E7ECE0"
   id="stop13" />

			<stop
   offset="0.5"
   style="stop-color:#6DBBCB"
   id="stop14" />

			<stop
   offset="1"
   style="stop-color:#0465AE"
   id="stop15" />

		</radialGradient>

		<path
   style="fill:url(#SVGID_00000015352108419408576090000014903051104895391408_)"
   d="m 157.3,128.8 c -3.1,4.4 -7.8,7.4 -12.7,9 -5,1.5 -10.2,1.3 -14.9,-0.3 -8.9,-2.8 -13.4,-11.8 -12.2,-19.4 0.2,-1.8 0.9,-3.9 1.6,-5.3 0.7,-1.4 1.6,-2.5 2.7,-3.5 2.2,-1.9 5,-2.8 7.5,-2.8 5.8,0.4 7.7,3.1 8.3,6.1 0.2,1.4 0,2.7 -0.4,3.8 -0.3,0.7 -0.6,1 -1,1.3 -0.7,0.6 -1.4,0.6 -1.5,0.6 1,0 2.1,-0.6 2.6,-1.6 0.8,-1.6 1.1,-3.8 0.4,-5.7 -0.8,-2 -2,-3.5 -4.2,-4.4 -2.5,-1.1 -5.3,-1.2 -7.9,-0.6 -2.7,0.7 -5,2.4 -6.7,4.6 -1.6,2.1 -2.8,5.7 -3,9 -0.5,6.7 2.8,13.7 8.6,17.4 2.7,1.8 6.7,3.3 10.3,3.7 3.7,0.5 7.6,0.1 11.2,-1.1 4.9,-1.6 9.4,-4.6 12.7,-8.7 v -4.6 c -0.3,0.9 -0.8,1.7 -1.4,2.5 z"
   id="path128" />

		
			<radialGradient
   id="radialGradient18"
   cx="115.868"
   cy="29.2922"
   r="96.545799"
   gradientTransform="matrix(0.9993,-0.03676498,0.03739823,1.0165,-7.5097,58.0139)"
   gradientUnits="userSpaceOnUse">
			<stop
   offset="0"
   style="stop-color:#E7ECE0"
   id="stop16" />

			<stop
   offset="0.5"
   style="stop-color:#6DBBCB"
   id="stop17" />

			<stop
   offset="1"
   style="stop-color:#0465AE"
   id="stop18" />

		</radialGradient>

		<path
   style="fill:url(#SVGID_00000116214909521782189750000006165057828803498405_)"
   d="m 113.1,182.2 c -9.5,-4.4 -18.8,-11.8 -25.4,-22 -3.3,-5.1 -5.9,-10.9 -7.7,-17 -1.7,-6.2 -2.4,-12.8 -2.2,-19.4 0.2,-6.6 1.6,-13.4 4.2,-19.7 2.4,-6.3 5.9,-11.8 10.6,-16.5 9.2,-9.4 23,-14.3 36.3,-13.1 6.5,0.6 13.4,2.9 18.5,6.2 4.9,3.1 8.8,7.5 11.6,12.6 v -6.1 c -2.3,-3.2 -5,-6.1 -8.2,-8.4 -6.8,-5 -15.9,-7.9 -24.7,-8.3 -8.9,-0.4 -18,1.6 -25.9,6.1 -8,4.3 -14.6,11 -19.3,18.9 -4.4,8 -7.3,17.6 -8,27.1 -0.7,9.5 0.7,19.3 4,28.4 3.4,9 8.7,17.3 15.5,24.1 13.5,13.7 33.5,20.5 53,21 4.7,-0.8 9.2,-2 13.6,-3.5 v -4.5 c -12.1,2 -28.7,2 -45.9,-5.9 z"
   id="path131" />

		
			<radialGradient
   id="radialGradient21"
   cx="115.868"
   cy="29.2922"
   r="96.545799"
   gradientTransform="matrix(0.9993,-0.03676498,0.03739823,1.0165,-7.5097,58.0139)"
   gradientUnits="userSpaceOnUse">
			<stop
   offset="0"
   style="stop-color:#E7ECE0"
   id="stop19" />

			<stop
   offset="0.5"
   style="stop-color:#6DBBCB"
   id="stop20" />

			<stop
   offset="1"
   style="stop-color:#0465AE"
   id="stop21" />

		</radialGradient>

		<path
   style="fill:url(#SVGID_00000137822796627696573950000005213815438751760561_)"
   d="m 130.5,148 c -9.6,-2 -17,-8.2 -20.3,-15.6 -3.4,-7.3 -3.2,-14.9 -1.4,-20.5 1.8,-5.7 5,-9.3 7.8,-11.2 2.7,-2 4.7,-2.7 5.3,-2.9 -7.2,2.5 -12.6,9.1 -14.2,17 -1.7,7.7 0,16.2 4.7,22.8 4.6,6.6 12.1,10.7 20.1,12 7.9,1.3 16.4,-0.1 23.4,-4.3 1.1,-0.6 2.1,-1.2 3,-1.9 v -1.9 c -8.4,6.5 -19.3,8.5 -28.4,6.5 z"
   id="path134" />

		
			<radialGradient
   id="radialGradient24"
   cx="115.868"
   cy="29.2922"
   r="96.545799"
   gradientTransform="matrix(0.9993,-0.03676498,0.03739823,1.0165,-7.5097,58.0139)"
   gradientUnits="userSpaceOnUse">
			<stop
   offset="0"
   style="stop-color:#E7ECE0"
   id="stop22" />

			<stop
   offset="0.5"
   style="stop-color:#6DBBCB"
   id="stop23" />

			<stop
   offset="1"
   style="stop-color:#0465AE"
   id="stop24" />

		</radialGradient>

		<path
   style="fill:url(#SVGID_00000078036703581544184270000003755644725882193573_)"
   d="m 143.4,64.8 c -15.8,-6 -34.3,-4.2 -49,4.5 -7.4,4.3 -13.9,10.2 -18.7,17.4 -4.9,7.2 -8.2,15.4 -10.1,23.8 -3.8,17 -1.6,35.4 6.2,51.1 7.7,15.8 21.3,28.5 37.2,35.5 12.2,3.3 24.6,3.9 36.4,2.1 0,0 -0.4,0 -1.2,0 -0.8,0 -2,-0.1 -3.5,-0.2 -1.5,-0.1 -3.4,-0.2 -5.6,-0.4 -2.2,-0.4 -4.7,-0.8 -7.5,-1.2 -2.8,-0.6 -5.8,-1.5 -9.1,-2.4 -3.2,-1.3 -6.8,-2.4 -10.3,-4.2 -7.2,-3.4 -14.7,-8.5 -21.4,-15.8 -6.6,-7.2 -12.3,-16.6 -15.6,-27.5 -3.5,-10.8 -4.1,-23.1 -1.8,-35.3 2.5,-12.1 8.1,-24.2 17.5,-33 9.3,-8.9 21.9,-14.3 34.8,-14.9 12.9,-0.7 26.3,3.3 35.9,11.6 0.5,0.4 0.9,0.8 1.3,1.2 v -3.3 c -4.5,-4 -9.8,-7.1 -15.5,-9 z"
   id="path137" />

		
			<radialGradient
   id="radialGradient27"
   cx="115.868"
   cy="29.2922"
   r="96.545799"
   gradientTransform="matrix(0.9993,-0.03676498,0.03739823,1.0165,-7.5097,58.0139)"
   gradientUnits="userSpaceOnUse">
			<stop
   offset="0"
   style="stop-color:#E7ECE0"
   id="stop25" />

			<stop
   offset="0.5"
   style="stop-color:#6DBBCB"
   id="stop26" />

			<stop
   offset="1"
   style="stop-color:#0465AE"
   id="stop27" />

		</radialGradient>

		<path
   style="fill:url(#SVGID_00000163761563743931976530000014990107999132375198_)"
   d="M 145.4,56.9 C 130.9,51.8 114.6,52 100.2,57.5 85.7,63.1 73.3,74 65.7,87.8 c -3.9,7 -6.1,14.2 -8,21.7 -1.5,7.6 -2.2,15.3 -1.7,23.1 1,15.4 6.2,30.7 15.1,43.3 7.6,8.3 16.7,14.7 26.5,19 0,0 -1.2,-0.8 -3.5,-2.3 -1.2,-0.7 -2.5,-1.8 -4,-3 -1.5,-1.3 -3.4,-2.6 -5.2,-4.4 -7.4,-6.9 -17,-18.8 -22.1,-35.9 -5,-16.9 -4.8,-39 5.4,-59.1 5.1,-10 13.3,-19 23.4,-25.1 10,-6.2 21.9,-9.5 33.9,-9.4 11.8,0.4 23.5,3.6 33.5,10.5 v -2.5 c -4.3,-3 -8.9,-5.3 -13.6,-6.8 z"
   id="path140" />

		
			<radialGradient
   id="radialGradient30"
   cx="115.868"
   cy="29.2922"
   r="96.545799"
   gradientTransform="matrix(0.9993,-0.03676498,0.03739823,1.0165,-7.5097,58.0139)"
   gradientUnits="userSpaceOnUse">
			<stop
   offset="0"
   style="stop-color:#E7ECE0"
   id="stop28" />

			<stop
   offset="0.5"
   style="stop-color:#6DBBCB"
   id="stop29" />

			<stop
   offset="1"
   style="stop-color:#0465AE"
   id="stop30" />

		</radialGradient>

		<path
   style="fill:url(#SVGID_00000050654273731395639810000010535150481326507652_)"
   d="m 158.2,152 c -8.5,4.7 -17.8,6 -25.7,5 -7.9,-1.1 -14.6,-3.9 -19.5,-7.9 -4.9,-3.8 -7.8,-8.1 -9.5,-11.3 -1.7,-3.2 -2.4,-5.4 -2.6,-6 2.4,7.8 7.6,14.8 14.5,19.3 6.9,4.6 14.6,6.5 22.6,6.7 7.3,0.1 14.6,-1.8 21,-5.4 v -1 c -0.3,0.4 -0.6,0.5 -0.8,0.6 z"
   id="path143" />

		
			<radialGradient
   id="radialGradient33"
   cx="115.868"
   cy="29.2922"
   r="96.545799"
   gradientTransform="matrix(0.9993,-0.03676498,0.03739823,1.0165,-7.5097,58.0139)"
   gradientUnits="userSpaceOnUse">
			<stop
   offset="0"
   style="stop-color:#E7ECE0"
   id="stop31" />

			<stop
   offset="0.5"
   style="stop-color:#6DBBCB"
   id="stop32" />

			<stop
   offset="1"
   style="stop-color:#0465AE"
   id="stop33" />

		</radialGradient>

		<path
   style="fill:url(#SVGID_00000139251562452020739180000004919806319296577214_)"
   d="m 147.1,164.2 c -11,2 -18,0 -19.1,0 10.3,2.2 21.3,0.9 30.9,-3.5 v -0.4 c -4.1,2 -8.2,3.2 -11.8,3.9 z"
   id="path146" />

		
			<radialGradient
   id="radialGradient36"
   cx="115.868"
   cy="29.2922"
   r="96.545799"
   gradientTransform="matrix(0.9993,-0.03676498,0.03739823,1.0165,-7.5097,58.0139)"
   gradientUnits="userSpaceOnUse">
			<stop
   offset="0"
   style="stop-color:#E7ECE0"
   id="stop34" />

			<stop
   offset="0.5"
   style="stop-color:#6DBBCB"
   id="stop35" />

			<stop
   offset="1"
   style="stop-color:#0465AE"
   id="stop36" />

		</radialGradient>

		<path
   style="fill:url(#SVGID_00000152964932328930605760000004321366047271550137_)"
   d="m 146.7,49.7 c -12.9,-4.2 -27,-5 -40.3,-1.6 -6.6,1.7 -13.1,4.1 -19,7.6 -6,3.4 -11.5,7.7 -16.2,12.7 -4.9,4.9 -8.9,10.7 -12.2,16.8 -1.6,3.1 -3.1,6.2 -4.2,9.3 L 53,99.2 51.7,104 c -3.4,12.9 -4.1,26.8 -1.5,40 2.9,9.3 7.4,17.9 12.9,25.5 0,0 -0.6,-1.1 -1.8,-3.2 -0.9,-2.2 -2.6,-5.4 -4.1,-9.6 -3.1,-8.4 -6.2,-21.3 -5,-36.9 0.6,-7.7 2.2,-16.2 5.4,-24.4 3,-8.4 8.1,-17.2 15,-24.5 6.8,-7.4 15.5,-13.5 25.2,-17.5 9.7,-4 20.5,-5.8 31.2,-5.1 5.3,0.3 10.6,1.3 15.8,2.8 2.6,0.7 5,1.8 7.5,2.7 2.2,1 4.5,2.1 6.7,3.4 v -1.9 c -4.1,-2.4 -8.3,-4.2 -12.3,-5.6 z"
   id="path149" />

		
			<radialGradient
   id="radialGradient39"
   cx="115.868"
   cy="29.3172"
   r="96.5224"
   gradientTransform="matrix(0.9993,-0.03676498,0.03739823,1.0165,-7.5097,58.0139)"
   gradientUnits="userSpaceOnUse">
			<stop
   offset="0"
   style="stop-color:#E7ECE0"
   id="stop37" />

			<stop
   offset="0.5"
   style="stop-color:#6DBBCB"
   id="stop38" />

			<stop
   offset="1"
   style="stop-color:#0465AE"
   id="stop39" />

		</radialGradient>

		<path
   style="fill:url(#SVGID_00000180347348307520386090000000857450956597876909_)"
   d="M 86.9,49.5 C 76.5,55 67.3,63 60.2,72.6 c -1.8,2.4 -3.3,5 -4.9,7.5 -1.5,2.6 -2.7,5.3 -4.1,8 l -3,7.9 c -1,2.7 -1.6,5.5 -2.4,8.2 -0.6,4.1 -0.6,8.2 -0.7,12.3 0.3,4.1 0.2,8.1 0.9,12.1 0,0 0,-1.1 -0.1,-3.2 0.1,-2.1 0.3,-5.1 0.5,-9 1,-7.7 2.9,-18.5 8.8,-30.9 6,-12.5 16.9,-25.8 32.1,-34.1 15.1,-8.5 34.3,-12 52.6,-8.1 4.5,1 9,2.3 13.3,4.1 1.9,0.7 3.8,1.6 5.8,2.6 v -1.6 c -1.3,-0.7 -2.7,-1.3 -4,-1.9 -21.5,-9.2 -47.4,-8.4 -68.1,3 z"
   id="path152" />

		
			<radialGradient
   id="radialGradient42"
   cx="115.868"
   cy="29.2922"
   r="96.545799"
   gradientTransform="matrix(0.9993,-0.03676498,0.03739823,1.0165,-7.5097,58.0139)"
   gradientUnits="userSpaceOnUse">
			<stop
   offset="0"
   style="stop-color:#E7ECE0"
   id="stop40" />

			<stop
   offset="0.5"
   style="stop-color:#6DBBCB"
   id="stop41" />

			<stop
   offset="1"
   style="stop-color:#0465AE"
   id="stop42" />

		</radialGradient>

		<path
   style="fill:url(#SVGID_00000040556827534389511220000009207811976129975964_)"
   d="m 127.1,176.1 c -3.1,-0.6 -6.1,-2.2 -9.2,-3.2 -1.4,-0.7 -2.7,-1.4 -4.1,-2.1 -1.3,-0.8 -2.6,-1.7 -3.9,-2.5 -10.2,-7 -18.3,-18.7 -20.9,-32.4 -1.3,-6.8 -1.2,-13.9 0.4,-20.8 0.8,-3.4 2,-7 3.4,-10 1.2,-3 3.2,-5.5 5.1,-8 8.2,-9.8 22.3,-14.5 34.7,-11.3 6.7,1.8 11.2,4.3 14.6,8.6 3.4,4.2 5.6,9.6 5.5,15 0.1,5.3 -1.8,11.2 -4.2,13.7 -2.6,3 -6.5,4.9 -10.4,5 -1.9,0.1 -3.8,-0.3 -5.6,-1 -1.6,-0.6 -2.2,-1.1 -3,-2 -1.5,-1.7 -2.1,-4.3 -1.6,-6.3 0,0 0.2,-2.7 2.8,-3.1 v 0 c -0.3,-0.2 -0.6,-0.3 -0.6,-0.3 -0.1,-0.1 -0.2,-0.1 -0.3,-0.1 -0.4,-0.1 -0.7,-0.2 -1.1,-0.2 -0.9,0 -1.7,0.5 -2.2,1.2 -0.2,0.2 -0.2,0.2 -0.4,0.8 -0.2,0.5 -0.4,1 -0.5,1.5 -0.2,1 -0.3,2 -0.3,3.1 0.1,2.1 1.1,4.2 2.5,5.8 0.7,0.8 1.6,1.5 2.5,2 1,0.6 2.7,1.2 4.1,1.5 3,0.7 6.1,0.5 9.1,-0.5 3,-1 5.7,-2.8 7.8,-5.2 1,-1.2 1.9,-2.5 2.6,-4 0.8,-1.7 1.4,-3.6 1.9,-5.5 1.9,-7.6 0.2,-16.1 -4.3,-22.7 -2.3,-3.3 -5.2,-6.1 -8.6,-8.2 l -2.7,-1.4 -3.2,-1.3 c -2.1,-0.7 -4.3,-1.4 -6.5,-1.7 -8.9,-1.6 -18.4,-0.1 -26.4,4.6 -8.1,4.6 -14.4,11.7 -18,20.8 -2.1,4.7 -3.1,9.7 -3.9,14.8 -0.5,5.1 -0.5,10.3 0.3,15.4 1.6,10.2 5.8,20.1 12.5,28 6.5,8.2 15.1,13.9 25.3,17.7 12.2,4.7 25.6,5.8 38.5,3.6 v -8.2 c -4.3,0.9 -8.9,1.4 -13.7,1.5 -5.7,-0.2 -11.9,-0.7 -18,-2.6 z"
   id="path155" />

	</g>

	<g
   id="g173"
   style="fill:#ffffff;fill-opacity:1"
   transform="translate(-931.40122,-107.39427)">
		<path
   class="st20"
   d="m 193.3,60.1 c 0,2.6 -0.9,4.8 -2.6,6.3 -1.7,1.6 -4.1,2.4 -7,2.4 h -5.4 v 10.8 h -5.6 V 51.2 h 11 c 3,0 5.3,0.8 7,2.4 1.7,1.6 2.6,3.8 2.6,6.5 z m -5.6,0 c 0,-1.4 -0.4,-2.4 -1.1,-3.2 -0.8,-0.7 -1.8,-1.1 -3.2,-1.1 h -5.1 V 64 h 5.1 c 1.3,0 2.4,-0.3 3.1,-1 0.8,-0.6 1.2,-1.6 1.2,-2.9 z"
   id="path156"
   style="fill:#ffffff;fill-opacity:1" />

		<path
   class="st20"
   d="m 201.8,51.2 v 8.9 c 0.7,-0.7 1.4,-1.3 2.3,-1.6 0.9,-0.4 1.8,-0.5 2.8,-0.5 2.3,0 4,0.7 5.3,2 1.2,1.4 1.9,3.3 1.9,5.7 v 14 h -5.3 V 66.3 c 0,-1.2 -0.3,-2.2 -0.9,-2.8 -0.6,-0.6 -1.5,-1 -2.5,-1 -1,0 -1.9,0.3 -2.5,1 -0.6,0.7 -1,1.6 -1,2.8 v 13.4 h -5.3 V 51.2 Z"
   id="path157"
   style="fill:#ffffff;fill-opacity:1" />

		<path
   class="st20"
   d="m 227.4,81.5 c -0.6,1.6 -1.4,2.7 -2.4,3.4 -1.1,0.7 -2.5,1.1 -4.2,1.1 H 219 v -4.6 h 1.7 c 0.8,0 1.5,-0.1 1.9,-0.4 0.4,-0.3 0.7,-0.8 1,-1.6 l 0.1,-0.3 -7.5,-20.9 h 5.6 l 4.3,13.5 4.4,-13.5 h 5.4 z"
   id="path158"
   style="fill:#ffffff;fill-opacity:1" />

		<path
   class="st20"
   d="m 237.3,73.3 v -0.2 h 4.9 v 0.1 c 0,0.8 0.3,1.4 1,1.9 0.7,0.5 1.5,0.7 2.6,0.7 1.2,0 2.1,-0.2 2.7,-0.6 0.7,-0.4 1,-1 1,-1.8 0,-0.7 -0.2,-1.2 -0.7,-1.5 -0.5,-0.4 -1.3,-0.6 -2.4,-0.8 l -2.3,-0.4 c -2.2,-0.4 -3.8,-1 -4.9,-2 -1,-1 -1.6,-2.3 -1.6,-4.1 0,-2 0.8,-3.7 2.3,-4.9 1.5,-1.2 3.5,-1.8 5.9,-1.8 1.6,0 3.1,0.3 4.4,0.8 1.3,0.5 2.2,1.3 2.9,2.2 0.7,1 1,2 1,3.2 v 0.2 h -4.9 v -0.1 c 0,-0.7 -0.3,-1.3 -0.9,-1.7 -0.6,-0.4 -1.5,-0.6 -2.5,-0.6 -1,0 -1.9,0.2 -2.5,0.6 -0.6,0.4 -0.8,1 -0.8,1.7 0,0.6 0.2,1.1 0.7,1.5 0.4,0.4 1.2,0.6 2.1,0.7 l 2.6,0.4 c 2.2,0.3 3.9,1 5,2 1.1,1 1.7,2.4 1.7,4.2 0,2.2 -0.8,3.9 -2.5,5.1 -1.6,1.2 -3.8,1.8 -6.4,1.8 -2.5,0 -4.5,-0.6 -6.1,-1.8 -1.5,-1.2 -2.3,-2.8 -2.3,-4.8 z"
   id="path159"
   style="fill:#ffffff;fill-opacity:1" />

		<path
   class="st20"
   d="m 263.7,51.2 v 4.1 h -5.4 v -4.1 z m -0.1,7 v 21.5 h -5.2 V 58.2 Z"
   id="path160"
   style="fill:#ffffff;fill-opacity:1" />

		<path
   class="st20"
   d="m 268,70.9 v -4 c 0,-3.1 0.8,-5.3 2.4,-6.8 1.6,-1.5 3.8,-2.2 6.6,-2.2 2.7,0 4.8,0.7 6.4,2 1.5,1.3 2.3,3.2 2.3,5.6 V 66 h -5 v -0.2 c 0,-1 -0.3,-1.8 -1,-2.4 -0.6,-0.6 -1.5,-0.9 -2.6,-0.9 -2.5,0 -3.8,1.5 -3.8,4.5 v 3.9 c 0,1.6 0.3,2.8 1,3.5 0.7,0.7 1.6,1 2.8,1 1.1,0 2,-0.3 2.6,-0.8 0.6,-0.6 1,-1.3 1,-2.3 V 72 h 5 v 0.3 c 0,2.4 -0.8,4.2 -2.3,5.6 -1.5,1.4 -3.7,2 -6.4,2 -2.8,0 -5,-0.7 -6.6,-2.2 C 268.8,76.3 268,74 268,70.9 Z"
   id="path161"
   style="fill:#ffffff;fill-opacity:1" />

		<path
   class="st20"
   d="m 289.1,73.3 v -0.2 h 4.9 v 0.1 c 0,0.8 0.3,1.4 1,1.9 0.7,0.5 1.5,0.7 2.6,0.7 1.2,0 2.1,-0.2 2.7,-0.6 0.7,-0.4 1,-1 1,-1.8 0,-0.7 -0.2,-1.2 -0.7,-1.5 -0.5,-0.4 -1.3,-0.6 -2.4,-0.8 l -2.3,-0.4 c -2.2,-0.4 -3.8,-1 -4.9,-2 -1,-1 -1.6,-2.3 -1.6,-4.1 0,-2 0.8,-3.7 2.3,-4.9 1.5,-1.2 3.5,-1.8 5.9,-1.8 1.6,0 3.1,0.3 4.4,0.8 1.3,0.5 2.2,1.3 2.9,2.2 0.7,1 1,2 1,3.2 v 0.2 H 301 v -0.1 c 0,-0.7 -0.3,-1.3 -0.9,-1.7 -0.6,-0.4 -1.5,-0.6 -2.5,-0.6 -1,0 -1.9,0.2 -2.5,0.6 -0.6,0.4 -0.8,1 -0.8,1.7 0,0.6 0.2,1.1 0.7,1.5 0.4,0.4 1.2,0.6 2.1,0.7 l 2.6,0.4 c 2.2,0.3 3.9,1 5,2 1.1,1 1.7,2.4 1.7,4.2 0,2.2 -0.8,3.9 -2.5,5.1 -1.6,1.2 -3.8,1.8 -6.4,1.8 -2.5,0 -4.5,-0.6 -6.1,-1.8 -1.5,-1.2 -2.3,-2.8 -2.3,-4.8 z"
   id="path162"
   style="fill:#ffffff;fill-opacity:1" />

		<path
   class="st20"
   d="m 179.3,96.6 v 1.5 h 3.9 v 3.6 h -3.9 v 17.9 h -5.2 v -17.9 h -2.3 v -3.6 h 2.3 v -1.3 c 0,-1.8 0.5,-3.2 1.6,-4.2 1.1,-1 2.6,-1.5 4.5,-1.5 h 3.1 v 3.5 h -1.7 c -0.8,0 -1.3,0.2 -1.7,0.5 -0.4,0.3 -0.6,0.9 -0.6,1.5 z"
   id="path163"
   style="fill:#ffffff;fill-opacity:1" />

		<path
   class="st20"
   d="m 185,110.9 v -4 c 0,-3.1 0.8,-5.3 2.4,-6.8 1.6,-1.5 3.8,-2.2 6.6,-2.2 2.7,0 4.9,0.7 6.5,2.2 1.6,1.5 2.4,3.7 2.4,6.8 v 4 c 0,3.1 -0.8,5.4 -2.4,6.8 -1.6,1.5 -3.7,2.2 -6.5,2.2 -2.8,0 -5,-0.7 -6.6,-2.2 -1.6,-1.5 -2.4,-3.8 -2.4,-6.8 z m 12.6,-4 c 0,-3 -1.2,-4.5 -3.7,-4.5 -2.5,0 -3.7,1.5 -3.7,4.5 v 3.9 c 0,3 1.2,4.5 3.7,4.5 2.4,0 3.7,-1.5 3.7,-4.5 z"
   id="path164"
   style="fill:#ffffff;fill-opacity:1" />

		<path
   class="st20"
   d="m 212.2,98.1 v 2.2 c 0.5,-0.9 1.3,-1.6 2.2,-2 0.9,-0.4 1.9,-0.7 3.1,-0.7 0.7,0 1.2,0.1 1.8,0.2 v 4.8 c -1,-0.3 -1.9,-0.5 -2.6,-0.5 -1.3,0 -2.3,0.4 -3.1,1.2 -0.8,0.8 -1.2,1.9 -1.2,3.4 v 12.9 h -5.3 V 98.1 Z"
   id="path165"
   style="fill:#ffffff;fill-opacity:1" />

		<path
   class="st20"
   d="m 198.8,159.6 h -5.6 v -16.9 l -5.6,11.4 h -3.7 l -5.6,-11.5 v 17 h -5.6 v -28.5 h 5.6 l 7.5,15.7 7.4,-15.7 h 5.6 z"
   id="path166"
   style="fill:#ffffff;fill-opacity:1" />

		<path
   class="st20"
   d="m 208.4,150.9 c 0,1.6 0.4,2.7 1.1,3.4 0.7,0.7 1.8,1 3.1,1 1,0 1.9,-0.2 2.5,-0.6 0.6,-0.4 0.9,-1 1,-1.8 v -0.1 h 5 v 0.2 c 0,2 -0.8,3.7 -2.3,4.9 -1.6,1.2 -3.7,1.9 -6.4,1.9 -2.8,0 -5.1,-0.8 -6.8,-2.4 -1.7,-1.6 -2.5,-4 -2.5,-7.3 v -2.6 c 0,-3.2 0.8,-5.6 2.4,-7.3 1.6,-1.6 3.8,-2.4 6.7,-2.4 2.8,0 5,0.8 6.6,2.4 1.6,1.6 2.4,4 2.4,7.2 v 2.9 h -12.9 v 0.6 z m 0,-4.2 v 0.1 h 7.6 v -0.5 c 0,-2.7 -1.3,-4.1 -3.8,-4.1 -1.2,0 -2.2,0.3 -2.9,1 -0.5,0.7 -0.9,1.9 -0.9,3.5 z"
   id="path167"
   style="fill:#ffffff;fill-opacity:1" />

		<path
   class="st20"
   d="m 225.2,150.9 v -4.3 c 0,-3 0.7,-5.2 2,-6.7 1.3,-1.5 3.1,-2.2 5.2,-2.2 2.2,0 3.9,0.8 5.1,2.4 v -9.2 h 5.2 v 28.5 h -5.1 v -2 c -1.2,1.5 -2.9,2.2 -5.2,2.2 -2.1,0 -3.9,-0.7 -5.2,-2.2 -1.4,-1.3 -2,-3.5 -2,-6.5 z m 12.3,-0.1 v -3.9 c 0,-1.5 -0.3,-2.6 -1,-3.3 -0.6,-0.8 -1.5,-1.2 -2.7,-1.2 -2.3,0 -3.5,1.5 -3.5,4.5 v 3.9 c 0,3 1.1,4.5 3.4,4.5 1.2,0 2.1,-0.4 2.8,-1.2 0.7,-0.8 1,-1.9 1,-3.3 z"
   id="path168"
   style="fill:#ffffff;fill-opacity:1" />

		<path
   class="st20"
   d="m 252.8,131.1 v 4.1 h -5.4 v -4.1 z m 0,7 v 21.5 h -5.2 v -21.5 z"
   id="path169"
   style="fill:#ffffff;fill-opacity:1" />

		<path
   class="st20"
   d="m 257.2,150.8 v -4 c 0,-3.1 0.8,-5.3 2.4,-6.8 1.6,-1.5 3.8,-2.2 6.6,-2.2 2.7,0 4.8,0.7 6.4,2 1.5,1.3 2.3,3.2 2.3,5.6 v 0.4 h -5 v -0.2 c 0,-1 -0.3,-1.8 -1,-2.4 -0.6,-0.6 -1.5,-0.9 -2.6,-0.9 -2.5,0 -3.8,1.5 -3.8,4.5 v 3.9 c 0,1.6 0.3,2.8 1,3.5 0.7,0.7 1.6,1 2.8,1 1.1,0 2,-0.3 2.6,-0.8 0.6,-0.6 1,-1.3 1,-2.3 v -0.2 h 5 v 0.3 c 0,2.4 -0.8,4.2 -2.3,5.6 -1.5,1.4 -3.7,2 -6.4,2 -2.8,0 -5,-0.7 -6.6,-2.2 -1.6,-1.4 -2.4,-3.7 -2.4,-6.8 z"
   id="path170"
   style="fill:#ffffff;fill-opacity:1" />

		<path
   class="st20"
   d="m 284.5,131.1 v 4.1 h -5.4 v -4.1 z m 0,7 v 21.5 h -5.2 v -21.5 z"
   id="path171"
   style="fill:#ffffff;fill-opacity:1" />

		<path
   class="st20"
   d="m 294.4,138.1 v 1.9 c 0.7,-0.7 1.4,-1.3 2.4,-1.6 0.9,-0.4 1.9,-0.6 2.9,-0.6 2.3,0 4,0.7 5.3,2.1 1.2,1.4 1.9,3.3 1.9,5.7 v 14 h -5.3 v -13.4 c 0,-1.2 -0.3,-2.1 -0.9,-2.8 -0.6,-0.7 -1.5,-1 -2.5,-1 -1,0 -1.9,0.3 -2.5,1 -0.7,0.7 -1,1.6 -1,2.8 v 13.4 h -5.3 v -21.5 z"
   id="path172"
   style="fill:#ffffff;fill-opacity:1" />

		<path
   class="st20"
   d="m 316.2,150.9 c 0,1.6 0.4,2.7 1.1,3.4 0.7,0.7 1.8,1 3.1,1 1,0 1.9,-0.2 2.5,-0.6 0.6,-0.4 0.9,-1 1,-1.8 v -0.1 h 5 v 0.2 c 0,2 -0.8,3.7 -2.3,4.9 -1.6,1.2 -3.7,1.9 -6.4,1.9 -2.8,0 -5.1,-0.8 -6.8,-2.4 -1.7,-1.6 -2.5,-4 -2.5,-7.3 v -2.6 c 0,-3.2 0.8,-5.6 2.4,-7.3 1.6,-1.6 3.8,-2.4 6.7,-2.4 2.8,0 5,0.8 6.6,2.4 1.6,1.6 2.4,4 2.4,7.2 v 2.9 h -12.9 v 0.6 z m 0,-4.2 v 0.1 h 7.6 v -0.5 c 0,-2.7 -1.3,-4.1 -3.8,-4.1 -1.2,0 -2.2,0.3 -2.9,1 -0.6,0.7 -0.9,1.9 -0.9,3.5 z"
   id="path173"
   style="fill:#ffffff;fill-opacity:1" />

	</g>

	<g
   id="g178"
   transform="translate(-931.40122,-107.39427)">
		<path
   class="st50"
   d="m 185.4,181 c 0,1.4 -0.5,2.5 -1.6,3.3 -1,0.8 -2.5,1.3 -4.3,1.3 h -3.3 v 5.7 h -3.4 v -15 h 6.7 c 1.8,0 3.2,0.4 4.3,1.3 1.1,0.8 1.6,2 1.6,3.4 z m -3.4,0 c 0,-0.7 -0.2,-1.3 -0.7,-1.7 -0.5,-0.4 -1.1,-0.6 -1.9,-0.6 h -3.1 v 4.3 h 3.1 c 0.8,0 1.4,-0.2 1.9,-0.5 0.5,-0.3 0.7,-0.8 0.7,-1.5 z"
   id="path174"
   style="fill:#137fc2" />

		<path
   class="st50"
   d="m 192.1,188.4 -1.1,2.9 h -3.6 l 6.3,-15 h 2.8 l 6.4,15 h -3.6 l -1.1,-2.9 z m 3.1,-8.1 -2.1,5.8 h 4.3 z"
   id="path175"
   style="fill:#137fc2" />

		<path
   class="st50"
   d="m 210.6,185.2 v 6.1 h -3.4 v -15 h 6.8 c 1.7,0 3.1,0.4 4.2,1.2 1,0.8 1.6,1.9 1.6,3.3 0,1 -0.3,1.8 -0.8,2.5 -0.5,0.7 -1.3,1.2 -2.3,1.5 l 3.9,6.5 h -3.9 l -3.4,-6.1 z m 3.2,-2.3 c 0.8,0 1.4,-0.2 1.8,-0.5 0.4,-0.4 0.7,-0.9 0.7,-1.5 0,-0.6 -0.2,-1.1 -0.7,-1.5 -0.4,-0.4 -1.1,-0.5 -1.8,-0.5 h -3.2 v 4.1 h 3.2 z"
   id="path176"
   style="fill:#137fc2" />

		<path
   class="st50"
   d="m 228.5,176.3 v 15 h -3.4 v -15 z"
   id="path177"
   style="fill:#137fc2" />

		<path
   class="st50"
   d="m 233.3,186.8 h 3.2 c 0.1,0.8 0.4,1.4 0.9,1.8 0.5,0.3 1.3,0.5 2.3,0.5 1.9,0 2.9,-0.7 2.9,-2 0,-0.6 -0.2,-1 -0.6,-1.4 -0.4,-0.3 -1,-0.5 -1.8,-0.6 l -1.7,-0.2 c -3.2,-0.5 -4.8,-1.8 -4.8,-4.2 0,-1.4 0.5,-2.5 1.6,-3.3 1.1,-0.8 2.5,-1.2 4.4,-1.2 1.8,0 3.1,0.4 4.2,1.2 1,0.8 1.6,1.9 1.7,3.3 h -3.3 c -0.1,-0.7 -0.3,-1.3 -0.7,-1.6 -0.4,-0.3 -1.1,-0.5 -2,-0.5 -0.9,0 -1.5,0.2 -2,0.5 -0.4,0.3 -0.7,0.8 -0.7,1.4 0,0.5 0.2,0.9 0.6,1.2 0.4,0.3 1,0.5 1.9,0.7 l 1.9,0.3 c 3.1,0.5 4.6,1.9 4.6,4.2 0,1.5 -0.6,2.7 -1.7,3.5 -1.1,0.8 -2.7,1.2 -4.6,1.2 -1.9,0 -3.4,-0.4 -4.5,-1.2 -1.1,-0.9 -1.7,-2.1 -1.8,-3.6 z"
   id="path178"
   style="fill:#137fc2" />

	</g>

</g>
    <g
       id="g295"
       transform="matrix(0.4664894,0,0,0.4664894,763.43579,166.11115)">
	<defs
   id="defs179" />

	<clipPath
   id="clipPath127">
		<use
   xlink:href="#SVGID_00000023265768991548081530000015552737299409429138_"
   style="overflow:visible"
   id="use127" />

	</clipPath>

	<g
   clip-path="url(#SVGID_00000178904635504348307740000006986449229023198087_)"
   id="g180">
		<defs
   id="defs180" />

		<clipPath
   id="clipPath128">
			<use
   xlink:href="#SVGID_00000128451382710667715000000008481679449329134235_"
   style="overflow:visible"
   id="use128" />

		</clipPath>

		<path
   style="fill:#ffffff"
   d="m 1181.8,49.1 c -8.3,-6 -16.3,-9.2 -23.7,-9.7 -0.6,0 -1.2,-0.1 -1.8,-0.1 -8.1,0 -15.4,3.4 -21.9,10.3 -5.8,6.2 -7.8,11.2 -7.8,17.3 0,3.2 0.6,6.8 1.4,10.9 1.6,7.8 6.3,15.4 12.8,20.8 5,4.1 10.6,6.2 16.4,6.2 3,0 6.2,-0.5 9.3,-1.6 10.2,-3.5 20,-13.6 23.8,-24.6 1.2,-3.5 1.8,-6.8 1.8,-10 0.1,-7.8 -3.4,-14.6 -10.3,-19.5 m -41.3,11.2 c -3.1,0 -4.6,2.7 -4.6,8.1 0,5.4 1.6,8.1 4.6,8.1 3.4,0 3.7,-3.8 3.7,-4.3 v -0.1 h 2.3 c 0.2,0 0.4,0.1 0.5,0.3 0.1,0.1 0.2,0.3 0.2,0.5 -0.1,1.5 -0.8,6.3 -6.7,6.3 -5,0 -7.6,-3.8 -7.6,-10.9 0,-7.1 2.6,-10.9 7.6,-10.9 6.1,0 6.7,5.3 6.7,6.3 0,0.2 -0.1,0.4 -0.2,0.5 -0.1,0.2 -0.3,0.2 -0.5,0.2 h -2.3 v -0.1 c 0,0 -0.2,-4 -3.7,-4 m 21.8,18.1 c 0,0.5 -0.3,0.9 -0.9,0.9 h -2 V 63.8 c 0,-2 -1.7,-3.7 -3.7,-3.7 -2,0 -3.7,1.7 -3.7,3.7 v 15.5 h -2 c -0.5,0 -0.8,-0.3 -0.8,-0.9 V 58.8 c 0,-0.5 0.2,-0.9 0.9,-0.9 h 2 v 1.2 c 1.1,-1 2.5,-1.6 4.1,-1.6 3.4,0 6.1,2.9 6.1,6.2 z m 9,-18.3 c -2,0 -3.7,1.7 -3.7,3.7 v 15.5 h -2 c -0.5,0 -0.8,-0.3 -0.8,-0.9 V 58.7 c 0,-0.5 0.2,-0.9 0.9,-0.9 h 2 V 59 c 1.1,-1 2.5,-1.6 4.1,-1.6 0.6,0 1.3,0.1 1.9,0.3 0.3,0.1 0.5,0.4 0.5,0.7 0,0.2 -0.1,0.4 -0.2,0.5 l -1.2,1.5 c -0.5,-0.2 -1,-0.3 -1.5,-0.3 m 8,19.2 c -1.6,0 -3.7,-0.4 -5.2,-2.3 -0.5,-0.7 -0.5,-1.1 0,-1.6 l 1.1,-0.9 0.1,0.1 c 1.6,1.8 3,2.1 4.2,2.1 1.4,0 3.7,-0.7 3.7,-3.3 0,-1.9 -0.9,-2.7 -2.9,-3.6 l -2,-0.9 c -2.2,-1 -4.3,-2.4 -4.3,-5.7 0,-3.4 2.7,-5.8 6.4,-5.8 1.9,0 3.6,0.6 4.6,1.8 0.2,0.3 0.4,0.8 -0.2,1.4 l -1,0.9 -0.1,-0.1 c -1.2,-1.2 -2.2,-1.5 -3.4,-1.5 -2,0 -3.4,1.2 -3.4,3.1 0,1.4 0.7,2.2 2.5,3 l 1.9,0.8 c 2.9,1.2 4.8,2.8 4.8,6.2 0,4.2 -3.4,6.3 -6.8,6.3"
   clip-path="url(#SVGID_00000181058222760105662680000015107762887643549338_)"
   id="path180" />

	</g>

	
		<rect
   x="508.70001"
   y="50.400002"
   style="fill:#ffffff"
   width="7.0999999"
   height="28.6"
   clip-path="url(#SVGID_00000178904635504348307740000006986449229023198087_)"
   id="rect180" />

	<g
   clip-path="url(#SVGID_00000178904635504348307740000006986449229023198087_)"
   id="g193">
		<defs
   id="defs181" />

		<clipPath
   id="clipPath129">
			<use
   xlink:href="#SVGID_00000107575647647673763680000012011739828110459014_"
   style="overflow:visible"
   id="use129" />

		</clipPath>

		<path
   style="fill:#ffffff"
   d="m 527.8,60.3 c 0.6,-0.6 1.3,-1.4 2.4,-2 0.9,-0.5 2,-1 3.5,-1 1.2,0 2.7,0.2 3.8,0.8 2.2,1.2 2.8,3.1 2.8,6.3 V 79 h -6.2 V 67.1 c 0,-1.9 0,-2.6 -0.3,-3.2 -0.5,-1.1 -1.6,-1.6 -2.8,-1.6 -3.3,0 -3.3,2.6 -3.3,5.2 v 11.4 h -6.2 v -21 h 6.3 z"
   clip-path="url(#SVGID_00000183224372990976221910000007792102216816131712_)"
   id="path181" />

		<path
   style="fill:#ffffff"
   d="m 546.7,71.9 c 1.7,1.7 4.1,2.9 6.4,2.9 1.5,0 3.8,-0.5 3.8,-2.1 0,-0.7 -0.5,-1 -0.8,-1.2 -0.9,-0.5 -2.4,-0.6 -3.6,-0.8 -0.9,-0.2 -1.9,-0.4 -2.8,-0.6 -1.3,-0.3 -2.6,-0.9 -3.5,-1.8 -0.9,-0.9 -1.6,-2.4 -1.6,-4 0,-3.5 3,-7.1 8.9,-7.1 5,0 8.1,2 9.5,3 l -3.5,3.6 c -2,-1.5 -4.3,-2.1 -5.7,-2.1 -2.5,0 -3,1 -3,1.6 0,1.2 1.4,1.4 3.4,1.8 4.3,0.8 9.2,1.9 9.2,6.9 0,5 -5,7.4 -10,7.4 -5.9,0 -9.1,-2.7 -10.4,-4 z"
   clip-path="url(#SVGID_00000183224372990976221910000007792102216816131712_)"
   id="path182" />

		<path
   style="fill:#ffffff"
   d="m 571.9,65.8 c 0.2,-0.9 0.4,-1.9 1.2,-2.8 0.6,-0.6 1.6,-1.4 3.2,-1.4 1.1,0 2.3,0.4 3,1.2 0.9,0.9 1,2.1 1.2,3 z m 10.1,6 c -1,1.6 -1.9,3.2 -5.4,3.2 -3.4,0 -4.9,-2.6 -4.8,-5.3 H 587 c -0.1,-2.4 -0.2,-6.5 -3,-9.4 -2.7,-2.9 -6.2,-3 -7.9,-3 -8.3,0 -10.6,6.5 -10.6,11.6 0,6.9 4.1,10.9 10.7,10.9 3.7,0 6.3,-1.1 8.2,-2.9 1.1,-1 1.8,-2 2.5,-3.2 z"
   clip-path="url(#SVGID_00000183224372990976221910000007792102216816131712_)"
   id="path183" />

		<path
   style="fill:#ffffff"
   d="m 596.5,60.3 c 1.4,-1.2 2.9,-2.4 6.1,-2.7 v 5.5 l -2.1,0.3 c -3,0.5 -3.9,1.5 -3.9,4.2 V 79 h -6.2 V 57.8 h 6 z"
   clip-path="url(#SVGID_00000183224372990976221910000007792102216816131712_)"
   id="path184" />

		<path
   style="fill:#ffffff"
   d="m 611.9,60.3 c 0.7,-0.8 2.4,-3 6,-3 3.5,0 4.7,1.3 5.8,2.5 1.2,-1 2.9,-2.5 6.3,-2.5 3.5,0 5.2,1.7 5.9,3 0.5,1.1 0.6,2.6 0.6,4.9 V 79 h -6.1 V 67.9 c 0,-1.2 0,-2.8 -0.3,-3.6 -0.6,-1.8 -2.3,-1.9 -2.7,-1.9 -0.6,0 -1.4,0.2 -2.1,0.6 -1.2,0.9 -1.2,2.1 -1.2,4.4 V 79 H 618 V 66.5 c 0,-0.9 0,-2.2 -0.6,-3 -0.5,-0.6 -1.4,-1.1 -2.5,-1.1 -0.5,0 -1.2,0.1 -1.7,0.5 -1.4,0.9 -1.4,2.6 -1.4,4.1 v 12 h -6.1 V 57.9 h 6.1 z"
   clip-path="url(#SVGID_00000183224372990976221910000007792102216816131712_)"
   id="path185" />

		<path
   style="fill:#ffffff"
   d="m 513.4,84.6 c -3.5,-0.8 -6.5,2.3 -5.8,5.8 0.4,1.8 1.8,3.2 3.6,3.6 3.5,0.8 6.5,-2.3 5.8,-5.8 -0.4,-1.8 -1.9,-3.2 -3.6,-3.6"
   clip-path="url(#SVGID_00000183224372990976221910000007792102216816131712_)"
   id="path186" />

		
			<rect
   x="487.89999"
   y="59.900002"
   style="fill:#ffffff"
   width="3.5"
   height="14.5"
   clip-path="url(#SVGID_00000183224372990976221910000007792102216816131712_)"
   id="rect186" />

		
			<rect
   x="481.70001"
   y="51.900002"
   style="fill:#ffffff"
   width="3.5"
   height="14.5"
   clip-path="url(#SVGID_00000183224372990976221910000007792102216816131712_)"
   id="rect187" />

		
			<rect
   x="481.70001"
   y="67.800003"
   style="fill:#ffffff"
   width="3.5"
   height="14.5"
   clip-path="url(#SVGID_00000183224372990976221910000007792102216816131712_)"
   id="rect188" />

		
			<rect
   x="475.39999"
   y="50.400002"
   style="fill:#ffffff"
   width="3.5"
   height="14.5"
   clip-path="url(#SVGID_00000183224372990976221910000007792102216816131712_)"
   id="rect189" />

		
			<rect
   x="475.39999"
   y="69.300003"
   style="fill:#ffffff"
   width="3.5"
   height="14.5"
   clip-path="url(#SVGID_00000183224372990976221910000007792102216816131712_)"
   id="rect190" />

		
			<rect
   x="469.20001"
   y="51.900002"
   style="fill:#ffffff"
   width="3.5"
   height="14.5"
   clip-path="url(#SVGID_00000183224372990976221910000007792102216816131712_)"
   id="rect191" />

		
			<rect
   x="469.20001"
   y="67.800003"
   style="fill:#ffffff"
   width="3.5"
   height="14.5"
   clip-path="url(#SVGID_00000183224372990976221910000007792102216816131712_)"
   id="rect192" />

		
			<rect
   x="462.89999"
   y="59.900002"
   style="fill:#ffffff"
   width="3.5"
   height="14.5"
   clip-path="url(#SVGID_00000183224372990976221910000007792102216816131712_)"
   id="rect193" />

	</g>

	<g
   clip-path="url(#SVGID_00000178904635504348307740000006986449229023198087_)"
   id="g202">
		<defs
   id="defs193" />

		<clipPath
   id="clipPath130">
			<use
   xlink:href="#SVGID_00000071532901156419673660000012803932387417820562_"
   style="overflow:visible"
   id="use130" />

		</clipPath>

		<path
   style="fill:#ffffff"
   d="m 684.8,65.4 v 2.7 c 0,0.2 -0.2,0.5 -0.5,0.5 h -0.5 c -0.2,0 -0.5,-0.2 -0.5,-0.5 v -0.6 c 0,-1 -0.8,-1.9 -1.9,-1.9 h -3.6 c -1.3,0 -2.4,1.1 -2.4,2.4 v 8.1 c 0,0.9 0.8,1.7 1.7,1.7 h 6.4 c 1.4,0 2.4,-1.6 3,-4 0,-0.2 0.2,-0.4 0.5,-0.4 h 0.5 c 0.3,0 0.5,0.2 0.5,0.5 l -0.8,4.9 c 0,0.2 -0.2,0.4 -0.5,0.4 h -19.1 c -0.2,0 -0.5,-0.2 -0.5,-0.5 v -0.3 c 0,-0.2 0.2,-0.5 0.5,-0.5 h 0.9 c 1.4,0 2.5,-1.1 2.5,-2.5 v -9 -2.1 -9 c 0,-1.4 -1.1,-2.5 -2.5,-2.5 h -0.9 c -0.2,0 -0.5,-0.2 -0.5,-0.5 V 52 c 0,-0.2 0.2,-0.5 0.5,-0.5 h 18.7 c 0.2,0 0.4,0.2 0.5,0.4 l 0.8,4.9 c 0,0.3 -0.2,0.5 -0.5,0.5 h -0.5 c -0.2,0 -0.4,-0.2 -0.5,-0.4 -0.5,-2.3 -1.5,-4 -3,-4 h -6 c -0.9,0 -1.7,0.8 -1.7,1.7 v 9.3 h 1.7 4.3 c 1,0 1.9,-0.8 1.9,-1.9 v -0.6 c 0,-0.2 0.2,-0.5 0.5,-0.5 h 0.5 c 0.2,0 0.5,0.2 0.5,0.5 v 2.7 z"
   clip-path="url(#SVGID_00000096019444422187276730000000993985956177012920_)"
   id="path193" />

		<path
   style="fill:#ffffff"
   d="m 693,71.9 c -0.3,0 -0.5,0.2 -0.5,0.5 v 3.7 c 0,0.8 0.4,1.2 0.8,1.6 0.4,0.3 4,2.1 8,2.1 4,0 9.8,-1 9.8,-7 0,-4.9 -4,-7.4 -6,-8.6 -1.2,-0.7 -3.3,-1.7 -4.5,-2.3 -1.2,-0.6 -3.7,-2.1 -3.7,-4.8 0,-2.6 2.2,-4.4 4.8,-4.4 3.1,0 6.3,1.9 6.7,4.9 0,0.2 0.2,0.5 0.5,0.5 h 0.3 c 0.3,0 0.5,-0.2 0.5,-0.5 v -2.4 c 0,-0.8 -0.5,-1.4 -0.9,-1.6 -0.3,-0.3 -2.7,-2.2 -7.2,-2.2 -4.5,0 -8.9,1.6 -8.9,6.6 0,5.1 4,7.1 6,8.1 1.9,1 3,1.5 4.5,2.4 1.5,0.9 3.6,2.5 3.6,5.1 0,2.6 -1.8,4.9 -5.5,4.9 -3.6,0 -7.4,-2.2 -7.7,-5.9 0,-0.3 -0.2,-0.5 -0.5,-0.5 z"
   clip-path="url(#SVGID_00000096019444422187276730000000993985956177012920_)"
   id="path194" />

		<path
   style="fill:#ffffff"
   d="m 765.2,79.2 c -0.2,0 -0.4,-0.2 -0.4,-0.4 v -0.6 c 0,-0.2 0.2,-0.4 0.4,-0.4 h 0.9 c 1.3,0 2.4,-1.1 2.4,-2.4 V 55.5 c 0,-1.3 -1.1,-2.4 -2.4,-2.4 h -0.9 c -0.2,0 -0.4,-0.2 -0.4,-0.4 v -0.6 c 0,-0.2 0.2,-0.4 0.4,-0.4 h 11 c 0.2,0 0.4,0.2 0.4,0.4 v 0.6 c 0,0.2 -0.2,0.4 -0.4,0.4 h -0.9 c -1.3,0 -2.4,1.1 -2.4,2.4 v 19.9 c 0,1.3 1.1,2.4 2.4,2.4 h 0.9 c 0.2,0 0.4,0.2 0.4,0.4 v 0.6 c 0,0.2 -0.2,0.4 -0.4,0.4 z"
   clip-path="url(#SVGID_00000096019444422187276730000000993985956177012920_)"
   id="path195" />

		<path
   style="fill:#ffffff"
   d="m 727.6,51.8 h -1.9 -11 c -0.2,0 -0.4,0.2 -0.4,0.4 v 0.6 c 0,0.2 0.2,0.4 0.4,0.4 h 0.9 c 1.3,0 2.4,1.1 2.4,2.4 v 19.9 c 0,1.3 -1.1,2.4 -2.4,2.4 h -0.9 c -0.2,0 -0.4,0.2 -0.4,0.4 v 0.6 c 0,0.2 0.2,0.4 0.4,0.4 h 11 c 0.2,0 0.4,-0.2 0.4,-0.4 v -0.6 c 0,-0.2 -0.2,-0.4 -0.4,-0.4 h -0.9 c -1.3,0 -2.4,-1.1 -2.4,-2.4 v -6.2 c 0,-1.3 1,-2.3 2.3,-2.3 h 3 c 6.1,0 8.4,-3.7 8.4,-7.9 0,-4.2 -2.5,-7.3 -8.5,-7.3 m -2,13.7 h -3.3 v -10 c 0,-1.3 1.1,-2.4 2.4,-2.4 h 0.9 c 3.8,0 6,2 6,6.2 0,4.6 -2.8,6.2 -6,6.2"
   clip-path="url(#SVGID_00000096019444422187276730000000993985956177012920_)"
   id="path196" />

		<path
   style="fill:#ffffff"
   d="m 760.2,71.7 h 0.5 c 0.3,0 0.5,0.2 0.5,0.6 -0.5,3.9 -3.3,7.5 -9.6,7.5 -6.7,0 -12,-3.3 -12,-13.8 0,-10.5 4.2,-14.6 13,-14.6 5.5,0 8,2.5 8,3.7 v 3.8 c 0,0.3 -0.2,0.5 -0.5,0.5 h -0.2 c -0.3,0 -0.5,-0.2 -0.5,-0.5 -0.2,-3.5 -3.1,-6 -6.7,-6 -3.8,0 -7.4,0.3 -7.9,11.5 -0.5,11.2 4.6,13.3 6.9,13.3 3,0 7.1,-0.6 8.2,-5.6 -0.1,-0.3 0.1,-0.4 0.3,-0.4"
   clip-path="url(#SVGID_00000096019444422187276730000000993985956177012920_)"
   id="path197" />

		<path
   style="fill:#ffffff"
   d="m 940,71.9 c -0.3,0 -0.5,0.2 -0.5,0.5 v 3.7 c 0,0.8 0.4,1.2 0.8,1.6 0.4,0.3 4,2.1 8,2.1 4,0 9.8,-1 9.8,-7 0,-4.9 -4,-7.4 -6,-8.6 -1.2,-0.7 -3.3,-1.7 -4.5,-2.3 -1.2,-0.6 -3.7,-2.1 -3.7,-4.8 0,-2.6 2.2,-4.4 4.8,-4.4 3.1,0 6.3,1.9 6.7,4.9 0,0.2 0.2,0.5 0.5,0.5 h 0.3 c 0.3,0 0.5,-0.2 0.5,-0.5 v -2.4 c 0,-0.8 -0.5,-1.4 -0.9,-1.6 -0.3,-0.3 -2.7,-2.2 -7.2,-2.2 -4.5,0 -8.9,1.6 -8.9,6.6 0,5.1 4,7.1 6,8.1 1.9,1 3,1.5 4.5,2.4 1.5,0.9 3.6,2.5 3.6,5.1 0,2.6 -1.8,4.9 -5.5,4.9 -3.6,0 -7.4,-2.2 -7.7,-5.9 0,-0.3 -0.2,-0.5 -0.5,-0.5 z"
   clip-path="url(#SVGID_00000096019444422187276730000000993985956177012920_)"
   id="path198" />

		<path
   style="fill:#ffffff"
   d="m 924.6,79.2 c -0.2,0 -0.4,-0.2 -0.4,-0.4 v -0.6 c 0,-0.2 0.2,-0.4 0.4,-0.4 h 0.9 c 1.3,0 2.4,-1.1 2.4,-2.4 V 55.6 c 0,-1.3 -1.1,-2.4 -2.4,-2.4 h -0.9 c -0.2,0 -0.4,-0.2 -0.4,-0.4 v -0.6 c 0,-0.2 0.2,-0.4 0.4,-0.4 h 11 c 0.2,0 0.4,0.2 0.4,0.4 v 0.6 c 0,0.2 -0.2,0.4 -0.4,0.4 h -0.9 c -1.3,0 -2.4,1.1 -2.4,2.4 v 19.9 c 0,1.3 1.1,2.4 2.4,2.4 h 0.9 c 0.2,0 0.4,0.2 0.4,0.4 v 0.6 c 0,0.2 -0.2,0.4 -0.4,0.4 h -11 z"
   clip-path="url(#SVGID_00000096019444422187276730000000993985956177012920_)"
   id="path199" />

		<path
   style="fill:#ffffff"
   d="m 861.3,51.9 h -1.9 -11 c -0.2,0 -0.4,0.2 -0.4,0.4 v 0.6 c 0,0.2 0.2,0.4 0.4,0.4 h 0.9 c 1.3,0 2.4,1.1 2.4,2.4 v 19.9 c 0,1.3 -1.1,2.4 -2.4,2.4 h -0.9 c -0.2,0 -0.4,0.2 -0.4,0.4 V 79 c 0,0.2 0.2,0.4 0.4,0.4 h 11 c 0.2,0 0.4,-0.2 0.4,-0.4 v -0.6 c 0,-0.2 -0.2,-0.4 -0.4,-0.4 h -0.9 c -1.3,0 -2.4,-1.1 -2.4,-2.4 v -6.2 c 0,-1.3 1,-2.3 2.3,-2.3 h 3 c 6.1,0 8.4,-3.7 8.4,-7.9 0.1,-4.2 -2.5,-7.3 -8.5,-7.3 m -1.9,13.7 h -3.3 v -10 c 0,-1.3 1.1,-2.4 2.4,-2.4 h 0.9 c 3.8,0 6,2 6,6.2 -0.1,4.6 -2.9,6.2 -6,6.2"
   clip-path="url(#SVGID_00000096019444422187276730000000993985956177012920_)"
   id="path200" />

		<path
   style="fill:#ffffff"
   d="m 911.2,69.9 c 0.6,1.4 2.8,6.3 3.8,8.4 0.3,0.6 0.9,0.9 1.5,0.9 h 4 1.6 c 0.2,0 0.4,-0.2 0.4,-0.4 v -0.6 c 0,-0.2 -0.2,-0.4 -0.4,-0.4 h -0.9 c -1.2,0 -2.2,-0.7 -2.7,-1.8 -0.7,-1.7 -1.7,-4 -2.1,-4.8 -0.4,-1 -1.4,-3.7 -3.4,-4.6 4.4,-0.8 6.2,-4.1 6.2,-7.7 0,-4.2 -2.5,-7.2 -8.6,-7.2 h -1.9 -11 c -0.2,0 -0.4,0.2 -0.4,0.4 v 0.6 c 0,0.2 0.2,0.4 0.4,0.4 h 0.9 c 1.3,0 2.4,1.1 2.4,2.4 v 19.9 c 0,1.3 -1.1,2.4 -2.4,2.4 h -0.9 c -0.2,0 -0.4,0.2 -0.4,0.4 v 0.6 c 0,0.2 0.2,0.4 0.4,0.4 h 11 c 0.2,0 0.4,-0.2 0.4,-0.4 v -0.6 c 0,-0.2 -0.2,-0.4 -0.4,-0.4 h -0.9 c -1.3,0 -2.4,-1.1 -2.4,-2.4 V 67 h 1.6 c 2.3,0 3.5,1.4 4.2,2.9 m -2.4,-4.3 h -3.3 v -10 c 0,-1.3 1.1,-2.4 2.4,-2.4 h 0.9 c 3.8,0 6,2 6,6.2 -0.1,4.6 -2.9,6.2 -6,6.2"
   clip-path="url(#SVGID_00000096019444422187276730000000993985956177012920_)"
   id="path201" />

		<path
   style="fill:#ffffff"
   d="m 894.9,77.9 h -0.3 c -1.4,0 -2.6,-0.8 -3,-2.1 l -9.1,-24.1 c -0.1,-0.2 -0.4,-0.2 -0.5,0 L 872,76 c -0.5,1.2 -1.6,1.9 -2.9,1.9 h -0.6 c -0.2,0 -0.4,0.2 -0.4,0.4 v 0.6 c 0,0.2 0.2,0.4 0.4,0.4 h 2.4 3.1 2.3 c 0.2,0 0.4,-0.2 0.4,-0.4 v -0.6 c 0,-0.2 -0.2,-0.4 -0.4,-0.4 H 875 c -0.9,0 -1.6,-0.9 -1.2,-1.8 l 1,-2.5 c 0.5,-1.2 1.6,-2 3,-2 h 5.6 c 1.1,0 2,0.7 2.3,1.7 l 0.9,2.7 c 0.3,0.9 -0.4,1.9 -1.4,1.9 H 884 c -0.2,0 -0.4,0.2 -0.4,0.4 v 0.6 c 0,0.2 0.2,0.4 0.4,0.4 h 2.3 6.3 2.3 c 0.2,0 0.4,-0.2 0.4,-0.4 v -0.6 c -0.1,-0.2 -0.2,-0.4 -0.4,-0.4 m -12.4,-7.6 h -4.9 c -1.2,0 -1.8,0.5 -1.8,0.5 l 4.5,-11.2 c 0.1,-0.3 0.5,-0.3 0.6,0 l 3,8.6 c 0.4,1 -0.3,2.1 -1.4,2.1"
   clip-path="url(#SVGID_00000096019444422187276730000000993985956177012920_)"
   id="path202" />

	</g>

	<polygon
   style="fill:#ffffff"
   points="832.3,42.9 819.9,42.9 819.9,40.3 814.9,40.3 814.9,38.6 809.4,38.6 809.4,40.3 804.5,40.3 804.5,42.9 792,42.9 792,45.3 832.3,45.3 "
   clip-path="url(#SVGID_00000178904635504348307740000006986449229023198087_)"
   id="polygon202" />

	<g
   clip-path="url(#SVGID_00000178904635504348307740000006986449229023198087_)"
   id="g275">
		<defs
   id="defs202" />

		<clipPath
   id="clipPath131">
			<use
   xlink:href="#SVGID_00000098216723454853511260000015221436478678122163_"
   style="overflow:visible"
   id="use131" />

		</clipPath>

		<g
   style="opacity:0.45"
   clip-path="url(#SVGID_00000109732388561425737140000014635905897486866573_)"
   id="g252">
			<g
   id="g251">
				<defs
   id="defs203" />

				<clipPath
   id="clipPath132">
					<use
   xlink:href="#SVGID_00000080179020680421021450000002559327646703518648_"
   style="overflow:visible"
   id="use132" />

				</clipPath>

				<g
   clip-path="url(#SVGID_00000057861322422351618420000002068869476118614185_)"
   id="g250">
					<defs
   id="defs204" />

					<clipPath
   id="clipPath133">
						<use
   xlink:href="#SVGID_00000042695932692575715830000000914935780301374875_"
   style="overflow:visible"
   id="use133" />

					</clipPath>

					
						<line
   style="fill:none;stroke:#ffffff;stroke-width:0.061;stroke-miterlimit:10"
   x1="791.90002"
   y1="37.799999"
   x2="791.90002"
   y2="46.200001"
   clip-path="url(#SVGID_00000127737330615877903370000016562353242439777184_)"
   id="line204" />

					
						<line
   style="fill:none;stroke:#ffffff;stroke-width:0.061;stroke-miterlimit:10"
   x1="792.79999"
   y1="37.799999"
   x2="792.79999"
   y2="46.200001"
   clip-path="url(#SVGID_00000127737330615877903370000016562353242439777184_)"
   id="line205" />

					
						<line
   style="fill:none;stroke:#ffffff;stroke-width:0.061;stroke-miterlimit:10"
   x1="793.70001"
   y1="37.799999"
   x2="793.70001"
   y2="46.200001"
   clip-path="url(#SVGID_00000127737330615877903370000016562353242439777184_)"
   id="line206" />

					
						<line
   style="fill:none;stroke:#ffffff;stroke-width:0.061;stroke-miterlimit:10"
   x1="794.5"
   y1="37.799999"
   x2="794.5"
   y2="46.200001"
   clip-path="url(#SVGID_00000127737330615877903370000016562353242439777184_)"
   id="line207" />

					
						<line
   style="fill:none;stroke:#ffffff;stroke-width:0.061;stroke-miterlimit:10"
   x1="795.40002"
   y1="37.799999"
   x2="795.40002"
   y2="46.200001"
   clip-path="url(#SVGID_00000127737330615877903370000016562353242439777184_)"
   id="line208" />

					
						<line
   style="fill:none;stroke:#ffffff;stroke-width:0.061;stroke-miterlimit:10"
   x1="796.29999"
   y1="37.799999"
   x2="796.29999"
   y2="46.200001"
   clip-path="url(#SVGID_00000127737330615877903370000016562353242439777184_)"
   id="line209" />

					
						<line
   style="fill:none;stroke:#ffffff;stroke-width:0.061;stroke-miterlimit:10"
   x1="797.20001"
   y1="37.799999"
   x2="797.20001"
   y2="46.200001"
   clip-path="url(#SVGID_00000127737330615877903370000016562353242439777184_)"
   id="line210" />

					
						<line
   style="fill:none;stroke:#ffffff;stroke-width:0.061;stroke-miterlimit:10"
   x1="798.09998"
   y1="37.799999"
   x2="798.09998"
   y2="46.200001"
   clip-path="url(#SVGID_00000127737330615877903370000016562353242439777184_)"
   id="line211" />

					
						<line
   style="fill:none;stroke:#ffffff;stroke-width:0.061;stroke-miterlimit:10"
   x1="798.90002"
   y1="37.799999"
   x2="798.90002"
   y2="46.200001"
   clip-path="url(#SVGID_00000127737330615877903370000016562353242439777184_)"
   id="line212" />

					
						<line
   style="fill:none;stroke:#ffffff;stroke-width:0.061;stroke-miterlimit:10"
   x1="799.79999"
   y1="37.799999"
   x2="799.79999"
   y2="46.200001"
   clip-path="url(#SVGID_00000127737330615877903370000016562353242439777184_)"
   id="line213" />

					
						<line
   style="fill:none;stroke:#ffffff;stroke-width:0.061;stroke-miterlimit:10"
   x1="800.70001"
   y1="37.799999"
   x2="800.70001"
   y2="46.200001"
   clip-path="url(#SVGID_00000127737330615877903370000016562353242439777184_)"
   id="line214" />

					
						<line
   style="fill:none;stroke:#ffffff;stroke-width:0.061;stroke-miterlimit:10"
   x1="801.59998"
   y1="37.799999"
   x2="801.59998"
   y2="46.200001"
   clip-path="url(#SVGID_00000127737330615877903370000016562353242439777184_)"
   id="line215" />

					
						<line
   style="fill:none;stroke:#ffffff;stroke-width:0.061;stroke-miterlimit:10"
   x1="802.5"
   y1="37.799999"
   x2="802.5"
   y2="46.200001"
   clip-path="url(#SVGID_00000127737330615877903370000016562353242439777184_)"
   id="line216" />

					
						<line
   style="fill:none;stroke:#ffffff;stroke-width:0.061;stroke-miterlimit:10"
   x1="803.29999"
   y1="37.799999"
   x2="803.29999"
   y2="46.200001"
   clip-path="url(#SVGID_00000127737330615877903370000016562353242439777184_)"
   id="line217" />

					
						<line
   style="fill:none;stroke:#ffffff;stroke-width:0.061;stroke-miterlimit:10"
   x1="804.20001"
   y1="37.799999"
   x2="804.20001"
   y2="46.200001"
   clip-path="url(#SVGID_00000127737330615877903370000016562353242439777184_)"
   id="line218" />

					
						<line
   style="fill:none;stroke:#ffffff;stroke-width:0.061;stroke-miterlimit:10"
   x1="805.09998"
   y1="37.799999"
   x2="805.09998"
   y2="46.200001"
   clip-path="url(#SVGID_00000127737330615877903370000016562353242439777184_)"
   id="line219" />

					
						<line
   style="fill:none;stroke:#ffffff;stroke-width:0.061;stroke-miterlimit:10"
   x1="806"
   y1="37.799999"
   x2="806"
   y2="46.200001"
   clip-path="url(#SVGID_00000127737330615877903370000016562353242439777184_)"
   id="line220" />

					
						<line
   style="fill:none;stroke:#ffffff;stroke-width:0.061;stroke-miterlimit:10"
   x1="806.79999"
   y1="37.799999"
   x2="806.79999"
   y2="46.200001"
   clip-path="url(#SVGID_00000127737330615877903370000016562353242439777184_)"
   id="line221" />

					
						<line
   style="fill:none;stroke:#ffffff;stroke-width:0.061;stroke-miterlimit:10"
   x1="807.70001"
   y1="37.799999"
   x2="807.70001"
   y2="46.200001"
   clip-path="url(#SVGID_00000127737330615877903370000016562353242439777184_)"
   id="line222" />

					
						<line
   style="fill:none;stroke:#ffffff;stroke-width:0.061;stroke-miterlimit:10"
   x1="808.59998"
   y1="37.799999"
   x2="808.59998"
   y2="46.200001"
   clip-path="url(#SVGID_00000127737330615877903370000016562353242439777184_)"
   id="line223" />

					
						<line
   style="fill:none;stroke:#ffffff;stroke-width:0.061;stroke-miterlimit:10"
   x1="809.5"
   y1="37.799999"
   x2="809.5"
   y2="46.200001"
   clip-path="url(#SVGID_00000127737330615877903370000016562353242439777184_)"
   id="line224" />

					
						<line
   style="fill:none;stroke:#ffffff;stroke-width:0.061;stroke-miterlimit:10"
   x1="810.40002"
   y1="37.799999"
   x2="810.40002"
   y2="46.200001"
   clip-path="url(#SVGID_00000127737330615877903370000016562353242439777184_)"
   id="line225" />

					
						<line
   style="fill:none;stroke:#ffffff;stroke-width:0.061;stroke-miterlimit:10"
   x1="811.20001"
   y1="37.799999"
   x2="811.20001"
   y2="46.200001"
   clip-path="url(#SVGID_00000127737330615877903370000016562353242439777184_)"
   id="line226" />

					
						<line
   style="fill:none;stroke:#ffffff;stroke-width:0.061;stroke-miterlimit:10"
   x1="812.09998"
   y1="37.799999"
   x2="812.09998"
   y2="46.200001"
   clip-path="url(#SVGID_00000127737330615877903370000016562353242439777184_)"
   id="line227" />

					
						<line
   style="fill:none;stroke:#ffffff;stroke-width:0.061;stroke-miterlimit:10"
   x1="813"
   y1="37.799999"
   x2="813"
   y2="46.200001"
   clip-path="url(#SVGID_00000127737330615877903370000016562353242439777184_)"
   id="line228" />

					
						<line
   style="fill:none;stroke:#ffffff;stroke-width:0.061;stroke-miterlimit:10"
   x1="813.90002"
   y1="37.799999"
   x2="813.90002"
   y2="46.200001"
   clip-path="url(#SVGID_00000127737330615877903370000016562353242439777184_)"
   id="line229" />

					
						<line
   style="fill:none;stroke:#ffffff;stroke-width:0.061;stroke-miterlimit:10"
   x1="814.79999"
   y1="37.799999"
   x2="814.79999"
   y2="46.200001"
   clip-path="url(#SVGID_00000127737330615877903370000016562353242439777184_)"
   id="line230" />

					
						<line
   style="fill:none;stroke:#ffffff;stroke-width:0.061;stroke-miterlimit:10"
   x1="815.59998"
   y1="37.799999"
   x2="815.59998"
   y2="46.200001"
   clip-path="url(#SVGID_00000127737330615877903370000016562353242439777184_)"
   id="line231" />

					
						<line
   style="fill:none;stroke:#ffffff;stroke-width:0.061;stroke-miterlimit:10"
   x1="816.5"
   y1="37.799999"
   x2="816.5"
   y2="46.200001"
   clip-path="url(#SVGID_00000127737330615877903370000016562353242439777184_)"
   id="line232" />

					
						<line
   style="fill:none;stroke:#ffffff;stroke-width:0.061;stroke-miterlimit:10"
   x1="817.40002"
   y1="37.799999"
   x2="817.40002"
   y2="46.200001"
   clip-path="url(#SVGID_00000127737330615877903370000016562353242439777184_)"
   id="line233" />

					
						<line
   style="fill:none;stroke:#ffffff;stroke-width:0.061;stroke-miterlimit:10"
   x1="818.29999"
   y1="37.799999"
   x2="818.29999"
   y2="46.200001"
   clip-path="url(#SVGID_00000127737330615877903370000016562353242439777184_)"
   id="line234" />

					
						<line
   style="fill:none;stroke:#ffffff;stroke-width:0.061;stroke-miterlimit:10"
   x1="819.20001"
   y1="37.799999"
   x2="819.20001"
   y2="46.200001"
   clip-path="url(#SVGID_00000127737330615877903370000016562353242439777184_)"
   id="line235" />

					
						<line
   style="fill:none;stroke:#ffffff;stroke-width:0.061;stroke-miterlimit:10"
   x1="820"
   y1="37.799999"
   x2="820"
   y2="46.200001"
   clip-path="url(#SVGID_00000127737330615877903370000016562353242439777184_)"
   id="line236" />

					
						<line
   style="fill:none;stroke:#ffffff;stroke-width:0.061;stroke-miterlimit:10"
   x1="820.90002"
   y1="37.799999"
   x2="820.90002"
   y2="46.200001"
   clip-path="url(#SVGID_00000127737330615877903370000016562353242439777184_)"
   id="line237" />

					
						<line
   style="fill:none;stroke:#ffffff;stroke-width:0.061;stroke-miterlimit:10"
   x1="821.79999"
   y1="37.799999"
   x2="821.79999"
   y2="46.200001"
   clip-path="url(#SVGID_00000127737330615877903370000016562353242439777184_)"
   id="line238" />

					
						<line
   style="fill:none;stroke:#ffffff;stroke-width:0.061;stroke-miterlimit:10"
   x1="822.70001"
   y1="37.799999"
   x2="822.70001"
   y2="46.200001"
   clip-path="url(#SVGID_00000127737330615877903370000016562353242439777184_)"
   id="line239" />

					
						<line
   style="fill:none;stroke:#ffffff;stroke-width:0.061;stroke-miterlimit:10"
   x1="823.5"
   y1="37.799999"
   x2="823.5"
   y2="46.200001"
   clip-path="url(#SVGID_00000127737330615877903370000016562353242439777184_)"
   id="line240" />

					
						<line
   style="fill:none;stroke:#ffffff;stroke-width:0.061;stroke-miterlimit:10"
   x1="824.40002"
   y1="37.799999"
   x2="824.40002"
   y2="46.200001"
   clip-path="url(#SVGID_00000127737330615877903370000016562353242439777184_)"
   id="line241" />

					
						<line
   style="fill:none;stroke:#ffffff;stroke-width:0.061;stroke-miterlimit:10"
   x1="825.29999"
   y1="37.799999"
   x2="825.29999"
   y2="46.200001"
   clip-path="url(#SVGID_00000127737330615877903370000016562353242439777184_)"
   id="line242" />

					
						<line
   style="fill:none;stroke:#ffffff;stroke-width:0.061;stroke-miterlimit:10"
   x1="826.20001"
   y1="37.799999"
   x2="826.20001"
   y2="46.200001"
   clip-path="url(#SVGID_00000127737330615877903370000016562353242439777184_)"
   id="line243" />

					
						<line
   style="fill:none;stroke:#ffffff;stroke-width:0.061;stroke-miterlimit:10"
   x1="827.09998"
   y1="37.799999"
   x2="827.09998"
   y2="46.200001"
   clip-path="url(#SVGID_00000127737330615877903370000016562353242439777184_)"
   id="line244" />

					
						<line
   style="fill:none;stroke:#ffffff;stroke-width:0.061;stroke-miterlimit:10"
   x1="827.90002"
   y1="37.799999"
   x2="827.90002"
   y2="46.200001"
   clip-path="url(#SVGID_00000127737330615877903370000016562353242439777184_)"
   id="line245" />

					
						<line
   style="fill:none;stroke:#ffffff;stroke-width:0.061;stroke-miterlimit:10"
   x1="828.79999"
   y1="37.799999"
   x2="828.79999"
   y2="46.200001"
   clip-path="url(#SVGID_00000127737330615877903370000016562353242439777184_)"
   id="line246" />

					
						<line
   style="fill:none;stroke:#ffffff;stroke-width:0.061;stroke-miterlimit:10"
   x1="829.70001"
   y1="37.799999"
   x2="829.70001"
   y2="46.200001"
   clip-path="url(#SVGID_00000127737330615877903370000016562353242439777184_)"
   id="line247" />

					
						<line
   style="fill:none;stroke:#ffffff;stroke-width:0.061;stroke-miterlimit:10"
   x1="830.59998"
   y1="37.799999"
   x2="830.59998"
   y2="46.200001"
   clip-path="url(#SVGID_00000127737330615877903370000016562353242439777184_)"
   id="line248" />

					
						<line
   style="fill:none;stroke:#ffffff;stroke-width:0.061;stroke-miterlimit:10"
   x1="831.5"
   y1="37.799999"
   x2="831.5"
   y2="46.200001"
   clip-path="url(#SVGID_00000127737330615877903370000016562353242439777184_)"
   id="line249" />

					
						<line
   style="fill:none;stroke:#ffffff;stroke-width:0.061;stroke-miterlimit:10"
   x1="832.29999"
   y1="37.799999"
   x2="832.29999"
   y2="46.200001"
   clip-path="url(#SVGID_00000127737330615877903370000016562353242439777184_)"
   id="line250" />

				</g>

			</g>

		</g>

		<path
   style="fill:#ffffff"
   d="m 794.5,48 v 25.3 c 0,9.8 6.6,12.5 12.7,14.5 2,0.7 3.8,1.2 4.9,2 v 1.6 l -0.4,-0.3 c -0.9,-0.8 -2.8,-1.3 -4.9,-2 -6.1,-2 -13.6,-4.9 -13.6,-15.7 V 46.8"
   clip-path="url(#SVGID_00000109732388561425737140000014635905897486866573_)"
   id="path252" />

		<path
   style="fill:#ffffff"
   d="m 807.6,75.7 c 0,0.5 -0.4,0.8 -0.9,0.8 h -0.4 v 0.8 h -0.5 v -2.4 h 0.9 c 0.5,0 0.9,0.3 0.9,0.8 m -1.3,-0.3 V 76 h 0.4 c 0.2,0 0.4,-0.1 0.4,-0.4 0,-0.2 -0.1,-0.3 -0.4,-0.3 h -0.4"
   clip-path="url(#SVGID_00000109732388561425737140000014635905897486866573_)"
   id="path253" />

		<path
   style="fill:#ffffff"
   d="m 810,77 h -1 l -0.1,0.3 h -0.5 l 1.1,-2.4 h 0.2 l 1.1,2.4 h -0.5 z m -0.5,-1.2 -0.3,0.8 h 0.6 z"
   clip-path="url(#SVGID_00000109732388561425737140000014635905897486866573_)"
   id="path254" />

		<path
   style="fill:#ffffff"
   d="m 813.4,77.3 -0.6,-0.8 h -0.4 v 0.8 h -0.5 v -2.4 h 0.9 c 0.5,0 0.9,0.3 0.9,0.8 0,0.3 -0.2,0.5 -0.4,0.7 l 0.7,0.9 z m -1,-1.3 h 0.4 c 0.2,0 0.4,-0.1 0.4,-0.3 0,-0.2 -0.1,-0.3 -0.4,-0.3 h -0.4 z"
   clip-path="url(#SVGID_00000109732388561425737140000014635905897486866573_)"
   id="path255" />

		
			<rect
   x="815.09998"
   y="74.900002"
   style="fill:#ffffff"
   width="0.5"
   height="2.4000001"
   clip-path="url(#SVGID_00000109732388561425737140000014635905897486866573_)"
   id="rect255" />

		<path
   style="fill:#ffffff"
   d="m 818.6,75.3 -0.3,0.3 c -0.1,-0.2 -0.3,-0.3 -0.4,-0.3 -0.2,0 -0.3,0.1 -0.3,0.2 0,0.1 0.1,0.2 0.3,0.3 l 0.3,0.1 c 0.4,0.2 0.6,0.4 0.6,0.7 0,0.4 -0.4,0.7 -0.8,0.7 -0.4,0 -0.7,-0.2 -0.9,-0.5 l 0.3,-0.3 c 0.1,0.2 0.3,0.4 0.6,0.4 0.2,0 0.3,-0.1 0.3,-0.3 0,-0.2 -0.1,-0.2 -0.3,-0.3 l -0.3,-0.1 c -0.3,-0.2 -0.6,-0.4 -0.6,-0.7 0,-0.4 0.3,-0.7 0.8,-0.7 0.3,0.1 0.5,0.3 0.7,0.5"
   clip-path="url(#SVGID_00000109732388561425737140000014635905897486866573_)"
   id="path256" />

		
			<path
   style="clip-rule:evenodd;fill:#ffffff;fill-rule:evenodd"
   d="m 805.9,81.9 c 0.1,-0.2 0.1,-0.4 0.1,-0.6 0,-0.2 -0.1,-0.5 -0.2,-0.8 -0.3,-0.5 -0.8,-1.1 -1.2,-1.4 -0.1,0.7 0.4,1.8 1,2.5 l 0.3,0.3 c -0.1,0.1 -0.3,0.2 -0.6,0.3 -0.2,0 -0.5,0.1 -0.7,0.1 -0.5,0 -1.1,0 -1.6,-0.2 0.3,-0.2 0.7,-0.4 1.2,-0.5 0.2,0 0.5,-0.1 0.7,0 0.2,0 0.5,0.1 0.7,0.2 z"
   clip-path="url(#SVGID_00000109732388561425737140000014635905897486866573_)"
   id="path257" />

		
			<path
   style="clip-rule:evenodd;fill:#ffffff;fill-rule:evenodd"
   d="m 803.8,80.6 c 0.1,-0.2 0.1,-0.4 0,-0.6 0,-0.2 -0.1,-0.5 -0.2,-0.7 -0.2,-0.5 -0.3,-0.9 -0.4,-1.2 -0.1,0.1 -0.2,0.3 -0.2,0.5 -0.1,0.2 -0.1,0.4 -0.1,0.6 0,0.1 0,0.2 0,0.3 0,0.1 0.1,0.2 0.1,0.3 0.1,0.2 0.3,0.4 0.4,0.5 l 0.4,0.3 c -0.1,0.2 -0.3,0.3 -0.5,0.4 -0.2,0.1 -0.5,0.1 -0.8,0.1 -0.2,0 -0.3,0 -0.5,-0.1 -0.2,0 -0.3,-0.1 -0.5,-0.2 -0.1,0 -0.2,-0.1 -0.3,-0.1 -0.1,0 -0.1,-0.1 -0.2,-0.2 -0.1,-0.1 -0.3,-0.2 -0.4,-0.4 0.2,0 0.4,0 0.6,0 0.2,0 0.5,0.1 0.8,0.1 0.1,0 0.3,0 0.4,0.1 0.1,0 0.3,0 0.4,0.1 0.2,0 0.5,0.1 0.7,0.2 z"
   clip-path="url(#SVGID_00000109732388561425737140000014635905897486866573_)"
   id="path258" />

		
			<path
   style="clip-rule:evenodd;fill:#ffffff;fill-rule:evenodd"
   d="m 801.9,79.1 c 0.1,-0.1 0.2,-0.3 0.3,-0.5 0,-0.1 0.1,-0.2 0.1,-0.3 0,-0.1 0.1,-0.2 0.1,-0.4 0,-0.1 0,-0.2 0,-0.4 0,-0.1 0,-0.3 0,-0.4 v -0.4 c 0,-0.1 0,-0.2 0,-0.4 -0.1,0.1 -0.3,0.2 -0.4,0.4 -0.1,0.2 -0.2,0.4 -0.3,0.6 -0.1,0.2 -0.1,0.4 -0.1,0.7 0,0.1 0,0.2 0,0.4 0,0.1 0,0.1 0,0.2 0,0 0,0.1 0.1,0.2 l 0.2,0.3 c -0.2,0.1 -0.4,0.1 -0.6,0.1 -0.1,0 -0.3,-0.1 -0.4,-0.1 -0.1,-0.1 -0.3,-0.1 -0.4,-0.2 -0.1,-0.1 -0.3,-0.2 -0.4,-0.3 -0.1,-0.1 -0.2,-0.2 -0.3,-0.4 -0.1,-0.1 -0.2,-0.3 -0.3,-0.4 -0.1,-0.1 -0.1,-0.3 -0.2,-0.4 0.2,0 0.4,0.1 0.6,0.2 0.2,0.1 0.4,0.2 0.6,0.3 0.2,0.1 0.4,0.3 0.6,0.4 0.1,0.1 0.2,0.2 0.3,0.2 0,0 0.1,0.1 0.1,0.1 0,0 0.1,0.1 0.1,0.1 z"
   clip-path="url(#SVGID_00000109732388561425737140000014635905897486866573_)"
   id="path259" />

		
			<path
   style="clip-rule:evenodd;fill:#ffffff;fill-rule:evenodd"
   d="m 800.6,75.5 c 0.1,-0.1 0.1,-0.2 0.1,-0.3 0,-0.1 0.1,-0.2 0.1,-0.3 0,-0.2 0,-0.5 0,-0.8 -0.1,-0.5 -0.3,-1.1 -0.6,-1.6 -0.1,0.3 -0.2,0.8 -0.2,1.3 0,0.2 0,0.5 0.1,0.7 0.1,0.2 0.2,0.5 0.3,0.7 0,0.1 0.1,0.2 0.2,0.3"
   clip-path="url(#SVGID_00000109732388561425737140000014635905897486866573_)"
   id="path260" />

		
			<path
   style="clip-rule:evenodd;fill:#ffffff;fill-rule:evenodd"
   d="m 800.9,76.9 -0.1,-0.3 c -0.1,-0.2 -0.2,-0.4 -0.4,-0.6 -0.1,-0.2 -0.3,-0.4 -0.5,-0.5 -0.4,-0.3 -0.8,-0.5 -1.1,-0.7 0.1,0.3 0.2,0.5 0.4,0.8 0.2,0.3 0.4,0.5 0.5,0.7 0.1,0.1 0.2,0.2 0.3,0.3 0.1,0.1 0.2,0.1 0.3,0.2 0.2,0.1 0.4,0.1 0.6,0.1 v -0.4 c 0,-0.2 0,-0.5 0,-0.7 0.1,-0.2 0.1,-0.4 0.3,-0.7 0.2,-0.4 0.5,-0.7 0.8,-0.9 0,0.2 0,0.5 -0.1,0.8 0,0.3 -0.1,0.5 -0.2,0.8 0,0.1 -0.1,0.2 -0.2,0.4 0,0.1 -0.1,0.2 -0.2,0.3 0,0.2 -0.2,0.3 -0.4,0.4"
   clip-path="url(#SVGID_00000109732388561425737140000014635905897486866573_)"
   id="path261" />

		
			<path
   style="clip-rule:evenodd;fill:#ffffff;fill-rule:evenodd"
   d="m 818.5,81.9 c 0.1,0.1 0.3,0.2 0.6,0.3 0.2,0 0.5,0.1 0.7,0.1 0.5,0 1.1,0 1.6,-0.2 -0.3,-0.2 -0.7,-0.4 -1.2,-0.5 -0.2,0 -0.5,-0.1 -0.7,0 -0.2,0 -0.5,0.1 -0.7,0.2 l -0.3,0.1 c -0.1,-0.2 -0.1,-0.4 -0.1,-0.6 0,-0.2 0.1,-0.5 0.2,-0.8 0.3,-0.6 0.8,-1.1 1.1,-1.4 0.1,0.7 -0.4,1.8 -1,2.5 z"
   clip-path="url(#SVGID_00000109732388561425737140000014635905897486866573_)"
   id="path262" />

		
			<path
   style="clip-rule:evenodd;fill:#ffffff;fill-rule:evenodd"
   d="m 820.5,80.6 c 0.1,0.2 0.3,0.3 0.5,0.4 0.2,0.1 0.5,0.1 0.8,0.1 0.2,0 0.3,0 0.5,-0.1 0.2,0 0.3,-0.1 0.5,-0.2 0.1,0 0.2,-0.1 0.2,-0.1 0.1,0 0.1,-0.1 0.2,-0.2 0.1,-0.1 0.3,-0.2 0.4,-0.4 -0.2,0 -0.4,0 -0.6,0 -0.2,0 -0.5,0.1 -0.8,0.1 -0.1,0 -0.3,0 -0.4,0.1 -0.1,0 -0.3,0 -0.4,0.1 -0.2,0.1 -0.5,0.1 -0.7,0.2 h -0.2 c -0.1,-0.2 -0.1,-0.4 0,-0.6 0,-0.2 0.1,-0.5 0.2,-0.7 0.2,-0.5 0.3,-0.9 0.4,-1.2 0.1,0.1 0.2,0.3 0.2,0.5 0.1,0.2 0.1,0.4 0.1,0.6 0,0.1 0,0.2 0,0.3 0,0.1 -0.1,0.2 -0.1,0.3 -0.1,0.2 -0.3,0.4 -0.4,0.6 z"
   clip-path="url(#SVGID_00000109732388561425737140000014635905897486866573_)"
   id="path263" />

		
			<path
   style="clip-rule:evenodd;fill:#ffffff;fill-rule:evenodd"
   d="m 822.4,79.1 c 0.2,0.1 0.4,0.1 0.6,0.1 0.1,0 0.3,-0.1 0.4,-0.1 0.1,-0.1 0.3,-0.1 0.4,-0.2 0.1,-0.1 0.3,-0.2 0.4,-0.3 0.1,-0.1 0.2,-0.2 0.3,-0.4 0.1,-0.1 0.2,-0.3 0.3,-0.4 0.1,-0.1 0.1,-0.3 0.2,-0.4 -0.2,0 -0.4,0.1 -0.6,0.2 -0.2,0.1 -0.4,0.2 -0.6,0.3 -0.2,0.1 -0.4,0.3 -0.6,0.4 -0.1,0.1 -0.2,0.2 -0.3,0.3 0,0 -0.1,0.1 -0.1,0.1 0,0 -0.1,0.1 -0.1,0.1 l -0.3,0.3 c -0.1,-0.1 -0.2,-0.3 -0.3,-0.5 0,-0.1 -0.1,-0.2 -0.1,-0.3 0,-0.1 -0.1,-0.2 -0.1,-0.4 0,-0.1 0,-0.2 0,-0.4 0,-0.1 0,-0.3 0,-0.4 0,-0.1 0,-0.2 0,-0.4 0,-0.1 0,-0.2 0,-0.4 0.1,0.1 0.3,0.2 0.4,0.4 0.1,0.2 0.2,0.4 0.3,0.6 0.1,0.2 0.1,0.4 0.1,0.7 0,0.1 0,0.2 0,0.4 0,0.1 0,0.1 0,0.2 0,0 0,0.1 -0.1,0.2 z"
   clip-path="url(#SVGID_00000109732388561425737140000014635905897486866573_)"
   id="path264" />

		
			<path
   style="clip-rule:evenodd;fill:#ffffff;fill-rule:evenodd"
   d="m 823.8,75.5 c 0.1,0 0.2,-0.1 0.2,-0.2 0.1,-0.1 0.1,-0.2 0.2,-0.3 0.1,-0.2 0.2,-0.5 0.2,-0.8 0.1,-0.6 0,-1.2 -0.2,-1.7 -0.2,0.3 -0.4,0.7 -0.5,1.2 0,0.2 -0.1,0.5 -0.1,0.7 0,0.2 0,0.5 0.1,0.7 0,0.1 0.1,0.3 0.1,0.4"
   clip-path="url(#SVGID_00000109732388561425737140000014635905897486866573_)"
   id="path265" />

		
			<path
   style="clip-rule:evenodd;fill:#ffffff;fill-rule:evenodd"
   d="m 823.4,76.9 v -0.4 c 0,-0.2 0,-0.5 -0.1,-0.7 -0.1,-0.2 -0.1,-0.4 -0.3,-0.7 -0.2,-0.4 -0.5,-0.7 -0.8,-0.9 0,0.2 0,0.5 0.1,0.8 0,0.3 0.1,0.5 0.2,0.8 0,0.1 0.1,0.2 0.2,0.4 0,0.1 0.1,0.2 0.2,0.3 0.2,0.2 0.4,0.3 0.5,0.4 l 0.1,-0.3 c 0.1,-0.2 0.2,-0.4 0.4,-0.6 0.1,-0.2 0.3,-0.4 0.5,-0.5 0.4,-0.3 0.8,-0.5 1.1,-0.7 -0.1,0.3 -0.2,0.5 -0.4,0.8 -0.2,0.3 -0.4,0.5 -0.5,0.7 -0.1,0.1 -0.2,0.2 -0.3,0.3 -0.1,0.1 -0.2,0.1 -0.3,0.2 -0.2,0.1 -0.4,0.1 -0.6,0.1"
   clip-path="url(#SVGID_00000109732388561425737140000014635905897486866573_)"
   id="path266" />

		<path
   style="fill:#ffffff"
   d="m 808.8,81.2 -0.3,0.1 v -0.1 l 0.7,-0.3 h 0.1 v 1.9 c 0,0.1 0.1,0.1 0.3,0.1 V 83 h -1.1 v -0.1 c 0.2,0 0.3,0 0.3,-0.1 z"
   clip-path="url(#SVGID_00000109732388561425737140000014635905897486866573_)"
   id="path267" />

		<path
   style="fill:#ffffff"
   d="m 811,80.9 c 0.3,0 0.6,0.2 0.6,0.5 0,0.2 -0.1,0.4 -0.4,0.5 0.3,0.1 0.5,0.3 0.5,0.6 0,0.4 -0.4,0.6 -0.8,0.6 -0.5,0 -0.7,-0.3 -0.7,-0.5 0,-0.2 0.1,-0.4 0.4,-0.5 -0.2,-0.1 -0.4,-0.3 -0.4,-0.5 0.1,-0.5 0.4,-0.7 0.8,-0.7 m -0.1,2 c 0.2,0 0.3,-0.2 0.3,-0.3 0,-0.2 -0.2,-0.4 -0.5,-0.5 -0.1,0.1 -0.2,0.3 -0.2,0.4 0.1,0.2 0.3,0.4 0.4,0.4 m 0.1,-1.8 c -0.1,0 -0.3,0.1 -0.3,0.3 0,0.2 0.2,0.3 0.4,0.4 0.1,-0.1 0.1,-0.3 0.1,-0.4 0,-0.3 -0.1,-0.3 -0.2,-0.3"
   clip-path="url(#SVGID_00000109732388561425737140000014635905897486866573_)"
   id="path268" />

		<path
   style="fill:#ffffff"
   d="m 813.1,80.9 c 0.3,0 0.6,0.2 0.6,0.5 0,0.2 -0.1,0.4 -0.4,0.5 0.3,0.1 0.5,0.3 0.5,0.6 0,0.4 -0.4,0.6 -0.8,0.6 -0.5,0 -0.7,-0.3 -0.7,-0.5 0,-0.2 0.1,-0.4 0.4,-0.5 -0.2,-0.1 -0.4,-0.3 -0.4,-0.5 0.1,-0.5 0.5,-0.7 0.8,-0.7 m 0,2 c 0.2,0 0.3,-0.2 0.3,-0.3 0,-0.2 -0.2,-0.4 -0.5,-0.5 -0.1,0.1 -0.2,0.3 -0.2,0.4 0.1,0.2 0.2,0.4 0.4,0.4 m 0,-1.8 c -0.1,0 -0.3,0.1 -0.3,0.3 0,0.2 0.2,0.3 0.4,0.4 0.1,-0.1 0.1,-0.3 0.1,-0.4 0.1,-0.3 -0.1,-0.3 -0.2,-0.3"
   clip-path="url(#SVGID_00000109732388561425737140000014635905897486866573_)"
   id="path269" />

		<path
   style="fill:#ffffff"
   d="m 814.8,81.2 c 0,0.1 0.1,0.1 0.1,0.2 0,0.1 -0.1,0.1 -0.2,0.1 -0.1,0 -0.2,0 -0.2,-0.2 0,-0.3 0.3,-0.5 0.6,-0.5 0.4,0 0.7,0.2 0.7,0.6 0,0.4 -0.3,0.7 -0.9,1.2 h 1 V 83 h -1.4 v -0.2 c 0.5,-0.4 0.9,-0.8 0.9,-1.3 0,-0.2 -0.1,-0.4 -0.3,-0.4 -0.2,0 -0.3,0.1 -0.3,0.1"
   clip-path="url(#SVGID_00000109732388561425737140000014635905897486866573_)"
   id="path270" />

		<polygon
   style="fill:#ffffff"
   points="794.5,48 793.3,46.8 831.1,46.8 829.8,48 "
   clip-path="url(#SVGID_00000109732388561425737140000014635905897486866573_)"
   id="polygon270" />

		<path
   style="fill:#ffffff"
   d="m 831.1,46.8 v 26.6 c 0,10.7 -7.5,13.7 -13.6,15.7 -2.1,0.7 -4,1.3 -4.9,2 l -0.4,0.3 v -1.6 c 1.1,-0.8 2.9,-1.3 4.9,-2 6.1,-2 12.7,-4.6 12.7,-14.5 V 48 Z"
   clip-path="url(#SVGID_00000109732388561425737140000014635905897486866573_)"
   id="path271" />

		<polygon
   style="fill:#ffffff"
   points="832.6,42.7 832.1,43.2 819.6,43.2 819.6,40.5 814.7,40.5 814.7,38.9 809.6,38.9 809.6,40.5 804.7,40.5 804.7,43.2 792.3,43.2 791.8,42.7 804.2,42.7 804.2,40 809.2,40 809.2,38.4 815.2,38.4 815.2,40 820.1,40 820.1,42.7 "
   clip-path="url(#SVGID_00000109732388561425737140000014635905897486866573_)"
   id="polygon271" />

		<polygon
   style="fill:#ffffff"
   points="791.7,45.7 792.2,45.2 832.1,45.2 832.6,45.7 "
   clip-path="url(#SVGID_00000109732388561425737140000014635905897486866573_)"
   id="polygon272" />

		<path
   style="fill:#ffffff"
   d="m 792.3,43.2 v 30.5 c 0,11.1 7.6,14.1 14.4,16.3 2.3,0.8 4.4,1.4 5.5,2.3 V 93 L 812,92.9 C 810.9,92 808.9,91.4 806.5,90.6 800,88.5 791.8,85.3 791.8,73.8 V 42.7 Z"
   clip-path="url(#SVGID_00000109732388561425737140000014635905897486866573_)"
   id="path272" />

		<path
   style="fill:#ffffff"
   d="m 832.6,42.7 v 31 c 0,11.4 -8.2,14.6 -14.7,16.8 -2.4,0.8 -4.5,1.4 -5.5,2.3 l -0.2,0.1 v -0.7 c 1.2,-0.9 3.2,-1.5 5.5,-2.3 6.8,-2.2 14.4,-5.2 14.4,-16.3 V 43.2 Z"
   clip-path="url(#SVGID_00000109732388561425737140000014635905897486866573_)"
   id="path273" />

		<path
   style="fill:#ffffff"
   d="m 810.3,52.6 h -1.3 -7.2 c -0.1,0 -0.2,0.1 -0.2,0.2 v 0.4 c 0,0.1 0.1,0.2 0.2,0.2 h 0.6 c 0.9,0 1.6,0.7 1.6,1.6 v 12.9 c 0,0.9 -0.7,1.6 -1.6,1.6 h -0.6 c -0.1,0 -0.2,0.1 -0.2,0.2 v 0.4 c 0,0.1 0.1,0.2 0.2,0.2 h 7.2 c 0.1,0 0.2,-0.1 0.2,-0.2 v -0.4 c 0,-0.1 -0.1,-0.2 -0.2,-0.2 h -0.6 c -0.9,0 -1.6,-0.7 -1.6,-1.6 v -4 c 0,-0.8 0.7,-1.5 1.5,-1.5 h 3 c 4,0 5.5,-2.4 5.5,-5.1 0.1,-2.7 -2.5,-4.7 -6.5,-4.7 m -0.2,8.9 h -3.2 v -6.1 c 0,-0.9 0.7,-1.6 1.6,-1.6 h 0.6 c 2.5,0 4.9,0.9 4.9,3.7 0,2.9 -1.9,4 -3.9,4"
   clip-path="url(#SVGID_00000109732388561425737140000014635905897486866573_)"
   id="path274" />

		<path
   style="fill:#ffffff"
   d="m 821.5,65.5 h 0.4 c 0.2,0 0.3,0.2 0.3,0.4 -0.4,2.5 -1.3,4.9 -5.4,4.9 -4.3,0 -7.8,-2.1 -7.8,-9 0,-6.8 2.7,-9.5 8.4,-9.5 3.6,0 4.4,1.6 4.4,2.4 v 2.5 c 0,0.2 -0.2,0.4 -0.4,0.4 h -0.2 c -0.2,0 -0.4,-0.1 -0.4,-0.3 -0.2,-2.3 -1.2,-3.6 -3.6,-3.6 -2.5,0 -4.9,0 -5.2,7.2 -0.3,7.3 3,8.6 4.5,8.6 2,0 3.8,-0.4 4.6,-3.6 0.1,-0.3 0.2,-0.4 0.4,-0.4"
   clip-path="url(#SVGID_00000109732388561425737140000014635905897486866573_)"
   id="path275" />

	</g>

	
		<rect
   x="1088.4"
   y="66"
   transform="matrix(0.7071,-0.7071,0.7071,0.7071,265.6005,791.7311)"
   style="fill:#ffffff"
   width="0.1"
   height="18.6"
   clip-path="url(#SVGID_00000178904635504348307740000006986449229023198087_)"
   id="rect275" />

	
		<rect
   x="1081.1"
   y="67.099998"
   style="fill:#ffffff"
   width="14.1"
   height="0.1"
   clip-path="url(#SVGID_00000178904635504348307740000006986449229023198087_)"
   id="rect276" />

	
		<rect
   x="1080.3"
   y="72.699997"
   style="fill:#ffffff"
   width="0.1"
   height="9.1999998"
   clip-path="url(#SVGID_00000178904635504348307740000006986449229023198087_)"
   id="rect277" />

	<g
   clip-path="url(#SVGID_00000178904635504348307740000006986449229023198087_)"
   id="g294">
		<defs
   id="defs277" />

		<clipPath
   id="clipPath134">
			<use
   xlink:href="#SVGID_00000113317969965042885940000008190368178359955599_"
   style="overflow:visible"
   id="use134" />

		</clipPath>

		<path
   style="fill:#ffffff"
   d="m 1087.7,60 c 2.3,0 4.3,1.1 5.6,2.6 h 0.2 c -1.3,-1.7 -3.4,-2.8 -5.8,-2.8 -1.7,0 -3.3,0.6 -4.5,1.6 l 0.1,0.1 c 1.1,-1 2.7,-1.5 4.4,-1.5"
   clip-path="url(#SVGID_00000012457666539902563250000005737560301729396909_)"
   id="path277" />

		<path
   style="fill:#ffffff"
   d="m 1087.3,74.5 h 0.3 c 4.1,0 7.3,-3.3 7.3,-7.3 0,-1.6 -0.5,-3 -1.3,-4.2 l -0.1,0.1 c 0.8,1.2 1.3,2.6 1.3,4.1 0,3.9 -3.2,7.2 -7.2,7.2 h -0.3"
   clip-path="url(#SVGID_00000012457666539902563250000005737560301729396909_)"
   id="path278" />

		<path
   style="fill:#ffffff"
   d="m 1094.1,62.6 h -0.8 c 0.1,0.1 0.2,0.3 0.3,0.3 z"
   clip-path="url(#SVGID_00000012457666539902563250000005737560301729396909_)"
   id="path279" />

		<path
   style="fill:#ffffff"
   d="m 1093.5,63 0.1,-0.1 c -0.1,-0.1 -0.2,-0.3 -0.2,-0.3 h -0.2 c 0.1,0.2 0.2,0.3 0.3,0.4"
   clip-path="url(#SVGID_00000012457666539902563250000005737560301729396909_)"
   id="path280" />

		<path
   style="fill:#ffffff"
   d="m 1087.3,74.5 c 0,-0.1 0,-0.1 -0.1,-0.1 z"
   clip-path="url(#SVGID_00000012457666539902563250000005737560301729396909_)"
   id="path281" />

		<path
   style="fill:#ffffff"
   d="m 1088.5,78.1 -1.2,-3.6 c -0.8,0 -1.4,-0.2 -2.1,-0.4 1.5,1 2.6,2.3 3.3,4"
   clip-path="url(#SVGID_00000012457666539902563250000005737560301729396909_)"
   id="path282" />

		<path
   style="fill:#ffffff"
   d="m 1083.5,62.6 -0.3,-1.1 c -1.6,1.3 -2.7,3.3 -2.7,5.6 0,3.9 3.1,7 6.9,7.2 l -1.8,-5.5 8,-5.8 c -0.1,-0.1 -0.2,-0.3 -0.3,-0.4 z"
   clip-path="url(#SVGID_00000012457666539902563250000005737560301729396909_)"
   id="path283" />

		<path
   style="fill:#ffffff"
   d="m 1088.8,78.9 c -0.1,-0.3 -0.2,-0.6 -0.3,-0.8 z"
   clip-path="url(#SVGID_00000012457666539902563250000005737560301729396909_)"
   id="path284" />

		
			<rect
   x="1078.6"
   y="59.099998"
   transform="matrix(0.7066,-0.7076,0.7076,0.7066,277.4246,787.4398)"
   style="fill:#ffffff"
   width="19.4"
   height="0.1"
   clip-path="url(#SVGID_00000012457666539902563250000005737560301729396909_)"
   id="rect284" />

		
			<rect
   x="1072.4"
   y="49.5"
   transform="matrix(0.7071,-0.7071,0.7071,0.7071,272.1836,775.7134)"
   style="fill:#ffffff"
   width="0.1"
   height="19.700001"
   clip-path="url(#SVGID_00000012457666539902563250000005737560301729396909_)"
   id="rect285" />

		
			<rect
   x="1065.5"
   y="67.099998"
   style="fill:#ffffff"
   width="14"
   height="0.1"
   clip-path="url(#SVGID_00000012457666539902563250000005737560301729396909_)"
   id="rect286" />

		<path
   style="fill:#ffffff"
   d="m 1071.6,79 c -0.3,0.8 -0.4,1.7 -0.4,2.6 V 82 h 0.1 v -0.4 c 0,-0.9 0.1,-1.7 0.4,-2.5"
   clip-path="url(#SVGID_00000012457666539902563250000005737560301729396909_)"
   id="path286" />

		<path
   style="fill:#ffffff"
   d="m 1088.8,79.1 c 0.3,0.8 0.4,1.6 0.4,2.5 V 82 h 0.1 v -0.4 c 0,-0.9 -0.1,-1.7 -0.4,-2.5"
   clip-path="url(#SVGID_00000012457666539902563250000005737560301729396909_)"
   id="path287" />

		<polygon
   style="fill:#ffffff"
   points="1079.9,67.7 1065.5,82 1065.5,81.9 1079.8,67.6 "
   clip-path="url(#SVGID_00000012457666539902563250000005737560301729396909_)"
   id="polygon287" />

		<path
   style="fill:#ffffff"
   d="m 1065.7,52.5 h 29.3 v 29.3 h -29.3 z m -0.3,29.6 h 29.8 V 52.3 h -29.8 z"
   clip-path="url(#SVGID_00000012457666539902563250000005737560301729396909_)"
   id="path288" />

		<path
   style="fill:#ffffff"
   d="m 1080.3,52.6 c -4.7,0 -9.1,2.3 -11.8,6.1 -2.3,3.1 -3.1,7 -2.4,10.8 0.6,3.8 2.8,7.1 5.9,9.4 2.4,1.8 5.3,2.6 8.3,2.6 4.7,0 9.1,-2.3 11.8,-6.1 2.3,-3.2 3.1,-7 2.4,-10.8 -0.6,-3.8 -2.8,-7.1 -6,-9.4 -2.3,-1.6 -5.2,-2.6 -8.2,-2.6 m 0,29.3 v 0 c -3.1,0 -6,-0.9 -8.5,-2.7 -3.2,-2.3 -5.4,-5.6 -6,-9.5 -0.7,-3.9 0.3,-7.8 2.5,-11 2.8,-3.9 7.3,-6.3 12.1,-6.3 3.1,0 6,0.9 8.5,2.7 3.2,2.3 5.4,5.6 6,9.5 0.7,3.9 -0.2,7.8 -2.5,11 -2.8,4 -7.3,6.3 -12.1,6.3"
   clip-path="url(#SVGID_00000012457666539902563250000005737560301729396909_)"
   id="path289" />

		<path
   style="fill:#ffffff"
   d="m 1080.3,72.6 c 1.1,0 2.1,0.2 3.1,0.6 -1.9,-1.3 -3.1,-3.5 -3.1,-6 0,-2.3 1.1,-4.4 2.8,-5.8 l -2.8,-8.8 -3.2,10.1 h -10.5 l 8.5,6.2 -3.1,9.1 c 1.4,-3.2 4.6,-5.4 8.3,-5.4"
   clip-path="url(#SVGID_00000012457666539902563250000005737560301729396909_)"
   id="path290" />

		<path
   style="fill:#ffffff"
   d="m 1088.8,78.9 -0.1,0.1 c -1.1,-3.6 -4.5,-6.2 -8.5,-6.2 -3.9,0 -7.3,2.6 -8.5,6.2 l -0.1,-0.1 v 0.2 l 8.6,-6.3 8.6,6.3 z"
   clip-path="url(#SVGID_00000012457666539902563250000005737560301729396909_)"
   id="path291" />

		<path
   style="fill:#ffffff"
   d="m 1071.7,78.8 v 0 L 1072,78 c -0.1,0.3 -0.2,0.6 -0.3,0.8"
   clip-path="url(#SVGID_00000012457666539902563250000005737560301729396909_)"
   id="path292" />

		<path
   style="fill:#ffffff"
   d="m 998.4,55.4 v 11 h 6.7 c 3.8,0 5.8,-2.3 5.8,-5.5 0,-3.1 -2,-5.5 -5.8,-5.5 z m 16.1,5.5 c 0,5.1 -3.6,8.7 -9.3,8.7 h -6.8 V 82.1 H 995 V 52.3 h 10.2 c 5.8,0 9.3,3.6 9.3,8.6"
   clip-path="url(#SVGID_00000012457666539902563250000005737560301729396909_)"
   id="path293" />

		<path
   style="fill:#ffffff"
   d="m 1036.5,56.8 -2.5,1.9 c -1.6,-2.4 -4,-3.8 -6.6,-3.8 -2.7,0 -5.2,1.4 -5.2,4.3 0,2.7 2,3.7 4.7,5 l 3.2,1.6 c 4.3,2.1 6.8,4.3 6.8,8.3 0,5 -4,8.3 -9.4,8.3 -4.6,0 -8.5,-2.5 -10.7,-6.4 l 2.6,-1.9 c 1.8,2.8 4.4,5.1 8.1,5.1 3.4,0 5.9,-1.9 5.9,-5 0,-2.8 -2,-3.8 -4.8,-5.3 l -3.3,-1.6 c -3.4,-1.7 -6.6,-3.8 -6.6,-8 0,-4.8 4.1,-7.8 8.8,-7.8 3.9,0.3 7.2,2.4 9,5.3"
   clip-path="url(#SVGID_00000012457666539902563250000005737560301729396909_)"
   id="path294" />

		<polygon
   style="fill:#ffffff"
   points="1043,82.1 1060.2,82.1 1060.2,78.9 1046.4,78.9 1046.4,52.3 1043,52.3 "
   clip-path="url(#SVGID_00000012457666539902563250000005737560301729396909_)"
   id="polygon294" />

	</g>

</g>
  </g>
</g>
</g>
  </g>
</svg>
